<svg width="18" height="16" viewBox="0 0 18 16" fill="none" xmlns="http://www.w3.org/2000/svg">
    <path
        d="M14.8334 5.49993C14.3176 5.50138 13.8149 5.66233 13.3941 5.96071C12.9734 6.25909 12.6553 6.6803 12.4834 7.16659H1.50002C1.27901 7.16659 1.06705 7.25439 0.910765 7.41067C0.754484 7.56695 0.666687 7.77891 0.666687 7.99993C0.666687 8.22094 0.754484 8.4329 0.910765 8.58918C1.06705 8.74546 1.27901 8.83326 1.50002 8.83326H12.4834C12.6362 9.26566 12.9051 9.64767 13.2606 9.93749C13.616 10.2273 14.0443 10.4138 14.4987 10.4765C14.953 10.5391 15.4158 10.4756 15.8364 10.2929C16.2571 10.1102 16.6194 9.81526 16.8836 9.44042C17.1479 9.06558 17.304 8.62527 17.3347 8.16768C17.3655 7.71008 17.2698 7.25284 17.0581 6.84599C16.8464 6.43914 16.5269 6.09836 16.1345 5.86095C15.7421 5.62354 15.292 5.49864 14.8334 5.49993ZM14.8334 8.83326C14.6685 8.83326 14.5074 8.78439 14.3704 8.69282C14.2333 8.60125 14.1265 8.4711 14.0635 8.31883C14.0004 8.16656 13.9839 7.999 14.016 7.83735C14.0482 7.6757 14.1276 7.52722 14.2441 7.41067C14.3606 7.29413 14.5091 7.21476 14.6708 7.18261C14.8324 7.15045 15 7.16695 15.1523 7.23003C15.3045 7.2931 15.4347 7.39991 15.5262 7.53695C15.6178 7.67399 15.6667 7.83511 15.6667 7.99993C15.6667 8.22094 15.5789 8.4329 15.4226 8.58918C15.2663 8.74546 15.0544 8.83326 14.8334 8.83326ZM1.50002 3.83326H2.48335C2.65852 4.31589 2.97804 4.73288 3.39849 5.02756C3.81894 5.32224 4.31992 5.48033 4.83335 5.48033C5.34679 5.48033 5.84777 5.32224 6.26822 5.02756C6.68866 4.73288 7.00818 4.31589 7.18335 3.83326H16.5C16.721 3.83326 16.933 3.74546 17.0893 3.58918C17.2456 3.4329 17.3334 3.22094 17.3334 2.99993C17.3334 2.77891 17.2456 2.56695 17.0893 2.41067C16.933 2.25439 16.721 2.16659 16.5 2.16659H7.18335C7.00818 1.68397 6.68866 1.26698 6.26822 0.972296C5.84777 0.677614 5.34679 0.519531 4.83335 0.519531C4.31992 0.519531 3.81894 0.677614 3.39849 0.972296C2.97804 1.26698 2.65852 1.68397 2.48335 2.16659H1.50002C1.27901 2.16659 1.06705 2.25439 0.910765 2.41067C0.754484 2.56695 0.666687 2.77891 0.666687 2.99993C0.666687 3.22094 0.754484 3.4329 0.910765 3.58918C1.06705 3.74546 1.27901 3.83326 1.50002 3.83326ZM4.83335 2.16659C4.99817 2.16659 5.15929 2.21547 5.29633 2.30704C5.43337 2.3986 5.54018 2.52875 5.60325 2.68103C5.66633 2.8333 5.68283 3.00085 5.65068 3.1625C5.61852 3.32415 5.53915 3.47264 5.42261 3.58918C5.30607 3.70573 5.15758 3.78509 4.99593 3.81725C4.83428 3.8494 4.66672 3.8329 4.51445 3.76983C4.36218 3.70675 4.23203 3.59994 4.14046 3.4629C4.04889 3.32586 4.00002 3.16475 4.00002 2.99993C4.00002 2.77891 4.08782 2.56695 4.2441 2.41067C4.40038 2.25439 4.61234 2.16659 4.83335 2.16659ZM16.5 12.1666H10.5167C10.3415 11.684 10.022 11.267 9.60155 10.9723C9.1811 10.6776 8.68012 10.5195 8.16669 10.5195C7.65325 10.5195 7.15227 10.6776 6.73183 10.9723C6.31138 11.267 5.99186 11.684 5.81669 12.1666H1.50002C1.27901 12.1666 1.06705 12.2544 0.910765 12.4107C0.754484 12.567 0.666687 12.7789 0.666687 12.9999C0.666687 13.2209 0.754484 13.4329 0.910765 13.5892C1.06705 13.7455 1.27901 13.8333 1.50002 13.8333H5.81669C5.99186 14.3159 6.31138 14.7329 6.73183 15.0276C7.15227 15.3222 7.65325 15.4803 8.16669 15.4803C8.68012 15.4803 9.1811 15.3222 9.60155 15.0276C10.022 14.7329 10.3415 14.3159 10.5167 13.8333H16.5C16.721 13.8333 16.933 13.7455 17.0893 13.5892C17.2456 13.4329 17.3334 13.2209 17.3334 12.9999C17.3334 12.7789 17.2456 12.567 17.0893 12.4107C16.933 12.2544 16.721 12.1666 16.5 12.1666ZM8.16669 13.8333C8.00187 13.8333 7.84075 13.7844 7.70371 13.6928C7.56667 13.6013 7.45986 13.4711 7.39679 13.3188C7.33371 13.1666 7.31721 12.999 7.34937 12.8374C7.38152 12.6757 7.46089 12.5272 7.57743 12.4107C7.69398 12.2941 7.84246 12.2148 8.00411 12.1826C8.16576 12.1505 8.33332 12.167 8.48559 12.23C8.63786 12.2931 8.76801 12.3999 8.85958 12.537C8.95115 12.674 9.00002 12.8351 9.00002 12.9999C9.00002 13.2209 8.91222 13.4329 8.75594 13.5892C8.59966 13.7455 8.3877 13.8333 8.16669 13.8333Z"
        fill="black"/>
</svg>
