<svg width="14" height="14" viewBox="0 0 14 14" fill="none" xmlns="http://www.w3.org/2000/svg">
    <path d="M5.44444 2.33333V3.88889H1.55556V12.4444H10.1111V8.55556H11.6667V13.2222C11.6667 13.4285 11.5847 13.6263 11.4389 13.7722C11.293 13.9181 11.0952 14 10.8889 14H0.777778C0.571498 14 0.373667 13.9181 0.227806 13.7722C0.0819442 13.6263 0 13.4285 0 13.2222V3.11111C0 2.90483 0.0819442 2.707 0.227806 2.56114C0.373667 2.41528 0.571498 2.33333 0.777778 2.33333H5.44444ZM14 0V6.22222H12.4444V2.65456L6.38322 8.71656L5.28344 7.61678L11.3439 1.55556H7.77778V0H14Z" fill="black"/>
</svg>
