<svg width="220" height="220" viewBox="0 0 220 220" fill="none" xmlns="http://www.w3.org/2000/svg">
    <circle cx="110" cy="110" r="110" fill="#B3B3B3"/>
    <mask id="path-2-inside-1_0_1" fill="white">
        <path fill-rule="evenodd" clip-rule="evenodd" d="M178.892 155.68C190.034 151.391 197 145.281 197 138.5C197 125.521 171.48 115 140 115C108.52 115 83 125.521 83 138.5C83 151.479 108.52 162 140 162C150.333 162 160.023 160.867 168.38 158.885C171.624 159.681 177.605 160.658 180 161C182.8 161.4 187.5 161.333 190.5 161L178.892 155.68Z"/>
    </mask>
    <path fill-rule="evenodd" clip-rule="evenodd" d="M178.892 155.68C190.034 151.391 197 145.281 197 138.5C197 125.521 171.48 115 140 115C108.52 115 83 125.521 83 138.5C83 151.479 108.52 162 140 162C150.333 162 160.023 160.867 168.38 158.885C171.624 159.681 177.605 160.658 180 161C182.8 161.4 187.5 161.333 190.5 161L178.892 155.68Z" fill="white"/>
    <path d="M178.892 155.68L178.713 155.213L177.605 155.64L178.684 156.134L178.892 155.68ZM168.38 158.885L168.499 158.399L168.382 158.37L168.265 158.398L168.38 158.885ZM180 161L179.929 161.495L180 161ZM190.5 161L190.555 161.497L192.349 161.298L190.708 160.545L190.5 161ZM196.5 138.5C196.5 141.706 194.855 144.805 191.784 147.658C188.712 150.511 184.248 153.082 178.713 155.213L179.072 156.146C184.679 153.988 189.268 151.36 192.465 148.391C195.662 145.421 197.5 142.075 197.5 138.5H196.5ZM140 115.5C155.691 115.5 169.874 118.123 180.115 122.345C185.236 124.457 189.348 126.958 192.172 129.711C194.994 132.462 196.5 135.431 196.5 138.5H197.5C197.5 135.079 195.816 131.867 192.87 128.995C189.925 126.124 185.689 123.562 180.496 121.421C170.107 117.138 155.789 114.5 140 114.5V115.5ZM83.5 138.5C83.5 135.431 85.0063 132.462 87.8283 129.711C90.652 126.958 94.7638 124.457 99.8855 122.345C110.126 118.123 124.309 115.5 140 115.5V114.5C124.211 114.5 109.893 117.138 99.5043 121.421C94.311 123.562 90.0754 126.124 87.1303 128.995C84.1837 131.867 82.5 135.079 82.5 138.5H83.5ZM140 161.5C124.309 161.5 110.126 158.877 99.8855 154.655C94.7638 152.543 90.652 150.042 87.8283 147.289C85.0063 144.538 83.5 141.569 83.5 138.5H82.5C82.5 141.921 84.1837 145.133 87.1303 148.005C90.0754 150.876 94.311 153.438 99.5043 155.579C109.893 159.862 124.211 162.5 140 162.5V161.5ZM168.265 158.398C159.949 160.37 150.297 161.5 140 161.5V162.5C150.368 162.5 160.097 161.363 168.495 159.371L168.265 158.398ZM168.261 159.37C171.53 160.173 177.531 161.152 179.929 161.495L180.071 160.505C177.678 160.163 171.718 159.19 168.499 158.399L168.261 159.37ZM179.929 161.495C182.783 161.903 187.528 161.833 190.555 161.497L190.445 160.503C187.472 160.833 182.817 160.897 180.071 160.505L179.929 161.495ZM190.708 160.545L179.101 155.225L178.684 156.134L190.292 161.455L190.708 160.545Z" fill="black" mask="url(#path-2-inside-1_0_1)"/>
    <mask id="path-4-inside-2_0_1" fill="white">
        <path fill-rule="evenodd" clip-rule="evenodd" d="M40.1074 98.6797C28.9655 94.3905 22 88.2806 22 81.5C22 68.5213 47.5198 58 79 58C110.48 58 136 68.5213 136 81.5C136 94.4787 110.48 105 79 105C68.6673 105 58.9767 103.866 50.6199 101.885C47.3757 102.681 41.3948 103.658 38.9995 104C36.1995 104.4 31.4995 104.333 28.4995 104L40.1074 98.6797Z"/>
    </mask>
    <path fill-rule="evenodd" clip-rule="evenodd" d="M40.1074 98.6797C28.9655 94.3905 22 88.2806 22 81.5C22 68.5213 47.5198 58 79 58C110.48 58 136 68.5213 136 81.5C136 94.4787 110.48 105 79 105C68.6673 105 58.9767 103.866 50.6199 101.885C47.3757 102.681 41.3948 103.658 38.9995 104C36.1995 104.4 31.4995 104.333 28.4995 104L40.1074 98.6797Z" fill="white"/>
    <path d="M40.1074 98.6797L40.287 98.2131L41.3949 98.6396L40.3157 99.1343L40.1074 98.6797ZM50.6199 101.885L50.5006 101.399L50.6178 101.37L50.7353 101.398L50.6199 101.885ZM38.9995 104L38.9288 103.505L38.9995 104ZM28.4995 104L28.4443 104.497L26.6502 104.298L28.2912 103.545L28.4995 104ZM22.5 81.5C22.5 84.7059 24.1447 87.8051 27.2158 90.6578C30.2877 93.5112 34.7519 96.0823 40.287 98.2131L39.9277 99.1463C34.321 96.9879 29.7315 94.3595 26.5352 91.3905C23.3381 88.4207 21.5 85.0747 21.5 81.5H22.5ZM79 58.5C63.3088 58.5 49.1265 61.1231 38.8855 65.3452C33.7638 67.4568 29.652 69.9585 26.8283 72.7108C24.0063 75.4615 22.5 78.4314 22.5 81.5H21.5C21.5 78.0792 23.1837 74.8669 26.1303 71.9947C29.0754 69.124 33.311 66.5618 38.5043 64.4207C48.8933 60.1376 63.2109 57.5 79 57.5V58.5ZM135.5 81.5C135.5 78.4314 133.994 75.4615 131.172 72.7108C128.348 69.9585 124.236 67.4568 119.115 65.3452C108.874 61.1231 94.6912 58.5 79 58.5V57.5C94.7891 57.5 109.107 60.1376 119.496 64.4207C124.689 66.5618 128.925 69.124 131.87 71.9947C134.816 74.8669 136.5 78.0792 136.5 81.5H135.5ZM79 104.5C94.6912 104.5 108.874 101.877 119.115 97.6548C124.236 95.5432 128.348 93.0415 131.172 90.2892C133.994 87.5385 135.5 84.5686 135.5 81.5H136.5C136.5 84.9208 134.816 88.1331 131.87 91.0053C128.925 93.876 124.689 96.4382 119.496 98.5793C109.107 102.862 94.7891 105.5 79 105.5V104.5ZM50.7353 101.398C59.0509 103.37 68.7025 104.5 79 104.5V105.5C68.632 105.5 58.9025 104.363 50.5045 102.371L50.7353 101.398ZM50.7391 102.37C47.4697 103.173 41.4682 104.152 39.0702 104.495L38.9288 103.505C41.3213 103.163 47.2818 102.19 50.5006 101.399L50.7391 102.37ZM39.0702 104.495C36.2162 104.903 31.4718 104.833 28.4443 104.497L28.5547 103.503C31.5273 103.833 36.1828 103.897 38.9288 103.505L39.0702 104.495ZM28.2912 103.545L39.899 98.2252L40.3157 99.1343L28.7078 104.455L28.2912 103.545Z" fill="black" mask="url(#path-4-inside-2_0_1)"/>
    <path d="M76.5447 95V95.25H76.7947H81.1673H81.4173V95V88.6885H88.0114H88.2614V88.4385V86.1383V85.8883H88.0114H81.4173V83.7486H88.0114H88.2614V83.4986V81.1983V80.9483H88.0114H82.6041L89.2222 68.1146L89.4102 67.75H89H84.5894H84.427L84.3609 67.8984L81.3578 74.6469C81.3577 74.6471 81.3576 74.6474 81.3575 74.6476C80.9091 75.6381 80.4782 76.6387 80.0406 77.6548C79.7131 78.4154 79.3818 79.1846 79.0367 79.9647C78.5326 78.8422 78.0656 77.7349 77.6028 76.6376C77.3221 75.9721 77.043 75.3103 76.758 74.6508L76.758 74.6508L76.7574 74.6494L73.7916 67.8994L73.726 67.75H73.5627H69H68.5908L68.7775 68.1141L75.3589 80.9483H69.9886H69.7386V81.1983V83.4986V83.7486H69.9886H76.5447V85.8883H69.9886H69.7386V86.1383V88.4385V88.6885H69.9886H76.5447V95Z" fill="black" stroke="black" stroke-width="0.5"/>
    <path d="M124.366 149H128.006V141.278C128.006 139.068 127.72 136.65 127.538 134.57H127.668L129.618 138.704L135.182 149H139.082V129.734H135.442V137.43C135.442 139.614 135.754 142.162 135.936 144.164H135.806L133.882 140.004L128.292 129.734H124.366V149ZM149.613 149.364C153.253 149.364 156.607 146.556 156.607 141.72C156.607 136.884 153.253 134.076 149.613 134.076C145.973 134.076 142.619 136.884 142.619 141.72C142.619 146.556 145.973 149.364 149.613 149.364ZM149.613 146.244C147.637 146.244 146.519 144.476 146.519 141.72C146.519 138.99 147.637 137.196 149.613 137.196C151.589 137.196 152.707 138.99 152.707 141.72C152.707 144.476 151.589 146.244 149.613 146.244Z" fill="black"/>
    <path d="M124.366 149H123.866V149.5H124.366V149ZM128.006 149V149.5H128.506V149H128.006ZM127.538 134.57V134.07H126.992L127.04 134.614L127.538 134.57ZM127.668 134.57L128.12 134.357L127.985 134.07H127.668V134.57ZM129.618 138.704L129.166 138.917L129.172 138.93L129.178 138.942L129.618 138.704ZM135.182 149L134.742 149.238L134.884 149.5H135.182V149ZM139.082 149V149.5H139.582V149H139.082ZM139.082 129.734H139.582V129.234H139.082V129.734ZM135.442 129.734V129.234H134.942V129.734H135.442ZM135.936 144.164V144.664H136.484L136.434 144.119L135.936 144.164ZM135.806 144.164L135.352 144.374L135.486 144.664H135.806V144.164ZM133.882 140.004L134.336 139.794L134.329 139.779L134.321 139.765L133.882 140.004ZM128.292 129.734L128.731 129.495L128.589 129.234H128.292V129.734ZM124.366 129.734V129.234H123.866V129.734H124.366ZM124.366 149.5H128.006V148.5H124.366V149.5ZM128.506 149V141.278H127.506V149H128.506ZM128.506 141.278C128.506 139.039 128.216 136.584 128.036 134.526L127.04 134.614C127.224 136.716 127.506 139.097 127.506 141.278H128.506ZM127.538 135.07H127.668V134.07H127.538V135.07ZM127.216 134.783L129.166 138.917L130.07 138.491L128.12 134.357L127.216 134.783ZM129.178 138.942L134.742 149.238L135.622 148.762L130.058 138.466L129.178 138.942ZM135.182 149.5H139.082V148.5H135.182V149.5ZM139.582 149V129.734H138.582V149H139.582ZM139.082 129.234H135.442V130.234H139.082V129.234ZM134.942 129.734V137.43H135.942V129.734H134.942ZM134.942 137.43C134.942 139.644 135.258 142.232 135.438 144.209L136.434 144.119C136.25 142.092 135.942 139.584 135.942 137.43H134.942ZM135.936 143.664H135.806V144.664H135.936V143.664ZM136.26 143.954L134.336 139.794L133.428 140.214L135.352 144.374L136.26 143.954ZM134.321 139.765L128.731 129.495L127.853 129.973L133.443 140.243L134.321 139.765ZM128.292 129.234H124.366V130.234H128.292V129.234ZM123.866 129.734V149H124.866V129.734H123.866ZM149.613 149.864C153.533 149.864 157.107 146.827 157.107 141.72H156.107C156.107 146.285 152.972 148.864 149.613 148.864V149.864ZM157.107 141.72C157.107 136.613 153.533 133.576 149.613 133.576V134.576C152.972 134.576 156.107 137.155 156.107 141.72H157.107ZM149.613 133.576C145.692 133.576 142.119 136.613 142.119 141.72H143.119C143.119 137.155 146.253 134.576 149.613 134.576V133.576ZM142.119 141.72C142.119 146.827 145.692 149.864 149.613 149.864V148.864C146.253 148.864 143.119 146.285 143.119 141.72H142.119ZM149.613 145.744C148.798 145.744 148.178 145.391 147.74 144.737C147.288 144.062 147.019 143.04 147.019 141.72H146.019C146.019 143.156 146.308 144.396 146.909 145.294C147.525 146.213 148.451 146.744 149.613 146.744V145.744ZM147.019 141.72C147.019 140.414 147.288 139.391 147.741 138.712C148.18 138.053 148.801 137.696 149.613 137.696V136.696C148.448 136.696 147.523 137.236 146.909 138.157C146.309 139.057 146.019 140.296 146.019 141.72H147.019ZM149.613 137.696C150.424 137.696 151.046 138.053 151.485 138.712C151.938 139.391 152.207 140.414 152.207 141.72H153.207C153.207 140.296 152.917 139.057 152.317 138.157C151.703 137.236 150.777 136.696 149.613 136.696V137.696ZM152.207 141.72C152.207 143.04 151.937 144.062 151.485 144.737C151.048 145.391 150.427 145.744 149.613 145.744V146.744C150.774 146.744 151.701 146.213 152.316 145.294C152.917 144.396 153.207 143.156 153.207 141.72H152.207Z" fill="black"/>
</svg>
