<svg width="220" height="220" viewBox="0 0 220 220" fill="none" xmlns="http://www.w3.org/2000/svg">
    <circle cx="110" cy="110" r="110" fill="#B3B3B3"/>
    <path d="M140.748 162.054L56.6223 174.534C56.1669 174.601 55.7035 174.485 55.3337 174.21C54.964 173.936 54.7181 173.526 54.6499 173.071L36.5389 50.9922C36.4718 50.5366 36.5882 50.073 36.8624 49.7032C37.1365 49.3333 37.5461 49.0874 38.0013 49.0193L122.127 36.5388C122.582 36.4718 123.046 36.5882 123.416 36.8625C123.785 37.1369 124.031 37.5467 124.099 38.0023L142.21 160.081C142.277 160.536 142.161 161 141.887 161.37C141.613 161.74 141.203 161.986 140.748 162.054Z" fill="white" stroke="black" stroke-width="0.5"/>
    <path d="M56.5165 168.369L56.2692 168.405L56.1221 167.414L56.3694 167.377L56.2223 166.385L55.975 166.422L55.8278 165.43L56.0751 165.393L55.928 164.401L55.6807 164.438L55.5335 163.446L55.7808 163.41L55.6337 162.418L55.3864 162.455L55.2393 161.463L55.4866 161.426L55.3394 160.434L55.0921 160.471L54.945 159.479L55.1923 159.442L55.0451 158.451L54.7979 158.487L54.6507 157.496L54.898 157.459L54.7509 156.467L54.5036 156.504L54.3564 155.512L54.6037 155.475L54.4566 154.483L54.2093 154.52L54.0622 153.528L54.3095 153.492L54.1623 152.5L53.915 152.537L53.7679 151.545L54.0152 151.508L53.868 150.516L53.6207 150.553L53.4736 149.561L53.7209 149.525L53.5738 148.533L53.3265 148.569L53.1793 147.578L53.4266 147.541L53.2795 146.549L53.0322 146.586L52.8851 145.594L53.1324 145.557L52.9852 144.566L52.7379 144.602L52.5908 143.61L52.8381 143.574L52.6909 142.582L52.4436 142.619L52.2965 141.627L52.5438 141.59L52.3967 140.598L52.1494 140.635L52.0022 139.643L52.2495 139.607L52.1024 138.615L51.8551 138.651L51.708 137.66L51.9552 137.623L51.8081 136.631L51.5608 136.668L51.4137 135.676L51.661 135.639L51.5138 134.648L51.2665 134.684L51.1194 133.693L51.3667 133.656L51.2196 132.664L50.9723 132.701L50.8251 131.709L51.0724 131.672L50.9253 130.68L50.678 130.717L50.5308 129.725L50.7781 129.689L50.631 128.697L50.3837 128.734L50.2366 127.742L50.4839 127.705L50.3367 126.713L50.0894 126.75L49.9423 125.758L50.1896 125.721L50.0425 124.73L49.7952 124.766L49.648 123.775L49.8953 123.738L49.7482 122.746L49.5009 122.783L49.3537 121.791L49.601 121.754L49.4539 120.763L49.2066 120.799L49.0595 119.807L49.3068 119.771L49.1596 118.779L48.9123 118.816L48.7652 117.824L49.0125 117.787L48.8653 116.795L48.6181 116.832L48.4709 115.84L48.7182 115.804L48.5711 114.812L48.3238 114.848L48.1766 113.857L48.4239 113.82L48.2768 112.828L48.0295 112.865L47.8824 111.873L48.1297 111.836L47.9825 110.845L47.7352 110.881L47.5881 109.889L47.8354 109.853L47.6882 108.861L47.4409 108.898L47.2938 107.906L47.5411 107.869L47.394 106.877L47.1467 106.914L46.9995 105.922L47.2468 105.886L47.0997 104.894L46.8524 104.931L46.7053 103.939L46.9526 103.902L46.8054 102.91L46.5581 102.947L46.411 101.955L46.6583 101.918L46.5111 100.927L46.2638 100.963L46.1167 99.9716L46.364 99.9349L46.2169 98.9431L45.9696 98.9798L45.8224 97.988L46.0697 97.9513L45.9226 96.9595L45.6753 96.9962L45.5282 96.0044L45.7754 95.9677L45.6283 94.9759L45.381 95.0126L45.2339 94.0208L45.4812 93.9841L45.334 92.9923L45.0867 93.029L44.9396 92.0372L45.1869 92.0005L45.0398 91.0087L44.7925 91.0454L44.6453 90.0536L44.8926 90.017L44.7455 89.0252L44.4982 89.0618L44.3511 88.0701L44.5983 88.0334L44.4512 87.0416L44.2039 87.0783L44.0568 86.0865L44.3041 86.0498L44.1569 85.058L43.9096 85.0947L43.7625 84.1029L44.0098 84.0662L43.8627 83.0744L43.6154 83.1111L43.4682 82.1193L43.7155 82.0826L43.5684 81.0908L43.3211 81.1275L43.1739 80.1357L43.4212 80.099L43.2741 79.1072L43.0268 79.1439L42.8797 78.1521L43.127 78.1154L42.9798 77.1237L42.7325 77.1603L42.5854 76.1685L42.8327 76.1319L42.6856 75.1401L42.4383 75.1768L42.2911 74.185L42.5384 74.1483L42.3913 73.1565L42.144 73.1932L41.9968 72.2014L42.2441 72.1647L42.097 71.1729L41.8497 71.2096L41.7026 70.2178L41.9499 70.1811L41.8027 69.1893L41.5554 69.226L41.4083 68.2342L41.6556 68.1975L41.5084 67.2057L41.2612 67.2424L41.114 66.2506L41.3613 66.2139L41.2142 65.2221L40.9669 65.2588L40.8197 64.267L41.067 64.2303L40.9199 63.2386L40.6726 63.2752L40.5255 62.2834L40.7728 62.2468L40.6256 61.255L40.3783 61.2917L40.2312 60.2999L40.4785 60.2632L40.3313 59.2714L40.084 59.3081L39.9369 58.3163L40.1842 58.2796L40.0371 57.2878L39.7898 57.3245L39.6426 56.3327L39.8899 56.296L39.7428 55.3042L39.4955 55.3409L39.3484 54.3491L39.5957 54.3124L39.5221 53.8165C39.5065 53.7107 39.5015 53.6043 39.5068 53.499L39.2571 53.4866C39.2694 53.2411 39.3298 53.0003 39.435 52.7782L39.6609 52.8851C39.706 52.7898 39.7607 52.6984 39.8244 52.6124C39.8882 52.5264 39.9598 52.4476 40.038 52.3767L39.87 52.1916C40.0521 52.0265 40.2649 51.8987 40.4962 51.8157L40.5807 52.051C40.6799 52.0154 40.7831 51.9893 40.8889 51.9735L41.3845 51.9L41.3478 51.6527L42.3392 51.5056L42.3759 51.7529L43.3673 51.6058L43.3306 51.3585L44.3221 51.2114L44.3588 51.4587L45.3502 51.3116L45.3135 51.0643L46.3049 50.9173L46.3416 51.1645L47.333 51.0175L47.2963 50.7702L48.2877 50.6231L48.3244 50.8704L49.3158 50.7233L49.2792 50.476L50.2706 50.3289L50.3073 50.5762L51.2987 50.4291L51.262 50.1818L52.2534 50.0348L52.2901 50.2821L53.2815 50.135L53.2448 49.8877L54.2363 49.7406L54.2729 49.9879L55.2644 49.8408L55.2277 49.5935L56.2191 49.4464L56.2558 49.6937L57.2472 49.5466L57.2105 49.2993L58.2019 49.1523L58.2386 49.3996L59.23 49.2525L59.1933 49.0052L60.1848 48.8581L60.2215 49.1054L61.2129 48.9583L61.1762 48.711L62.1676 48.5639L62.2043 48.8112L63.1957 48.6641L63.159 48.4169L64.1504 48.2698L64.1871 48.5171L65.1785 48.37L65.1419 48.1227L66.1333 47.9756L66.17 48.2229L67.1614 48.0758L67.1247 47.8285L68.1161 47.6814L68.1528 47.9287L69.1442 47.7816L69.1075 47.5344L70.099 47.3873L70.1356 47.6346L71.1271 47.4875L71.0904 47.2402L72.0818 47.0931L72.1185 47.3404L73.1099 47.1933L73.0732 46.946L74.0646 46.7989L74.1013 47.0462L75.0927 46.8992L75.056 46.6519L76.0475 46.5048L76.0842 46.7521L77.0756 46.605L77.0389 46.3577L78.0303 46.2106L78.067 46.4579L79.0584 46.3108L79.0217 46.0635L80.0131 45.9164L80.0498 46.1637L81.0412 46.0167L81.0046 45.7694L81.996 45.6223L82.0327 45.8696L83.0241 45.7225L82.9874 45.4752L83.9788 45.3281L84.0155 45.5754L85.0069 45.4283L84.9702 45.181L85.9617 45.034L85.9983 45.2812L86.9898 45.1342L86.9531 44.8869L87.9445 44.7398L87.9812 44.9871L88.9726 44.84L88.9359 44.5927L89.9273 44.4456L89.964 44.6929L90.9554 44.5458L90.9187 44.2985L91.9102 44.1515L91.9469 44.3987L92.9383 44.2517L92.9016 44.0044L93.893 43.8573L93.9297 44.1046L94.9211 43.9575L94.8844 43.7102L95.8758 43.5631L95.9125 43.8104L96.9039 43.6633L96.8673 43.416L97.8587 43.269L97.8954 43.5163L98.8868 43.3692L98.8501 43.1219L99.8415 42.9748L99.8782 43.2221L100.87 43.075L100.833 42.8277L101.824 42.6806L101.861 42.9279L102.852 42.7808L102.816 42.5335L103.807 42.3865L103.844 42.6338L104.835 42.4867L104.799 42.2394L105.79 42.0923L105.827 42.3396L106.818 42.1925L106.781 41.9452L107.773 41.7981L107.81 42.0454L108.801 41.8983L108.764 41.6511L109.756 41.504L109.792 41.7513L110.784 41.6042L110.747 41.3569L111.739 41.2098L111.775 41.4571L112.767 41.31L112.73 41.0627L113.721 40.9156L113.758 41.1629L114.749 41.0159L114.713 40.7686L115.704 40.6215L115.741 40.8688L116.732 40.7217L116.696 40.4744L117.687 40.3273L117.724 40.5746L118.715 40.4275L118.678 40.1802L119.67 40.0332L119.707 40.2804L120.202 40.2069C120.308 40.1913 120.414 40.1864 120.52 40.1916L120.532 39.9419C120.778 39.9542 121.018 40.0147 121.24 40.1198L121.134 40.3458C121.229 40.3909 121.32 40.4455 121.406 40.5093L121.555 40.3088L121.406 40.5093C121.492 40.5731 121.571 40.6447 121.642 40.7228L121.827 40.5549C121.992 40.7369 122.12 40.9497 122.203 41.1811L121.968 41.2655C122.003 41.3648 122.029 41.468 122.045 41.5739L122.119 42.0695L122.366 42.0328L122.513 43.0246L122.266 43.0613L122.413 44.0531L122.66 44.0164L122.807 45.0082L122.56 45.0449L122.707 46.0367L122.955 46L123.102 46.9918L122.854 47.0285L123.002 48.0203L123.249 47.9836L123.396 48.9754L123.149 49.0121L123.296 50.0039L123.543 49.9672L123.69 50.959L123.443 50.9957L123.59 51.9875L123.837 51.9508L123.985 52.9426L123.737 52.9793L123.884 53.9711L124.132 53.9344L124.279 54.9262L124.032 54.9628L124.179 55.9546L124.426 55.918L124.573 56.9097L124.326 56.9464L124.473 57.9382L124.72 57.9015L124.867 58.8933L124.62 58.93L124.767 59.9218L125.015 59.8851L125.162 60.8769L124.914 60.9136L125.061 61.9054L125.309 61.8687L125.456 62.8605L125.209 62.8972L125.356 63.889L125.603 63.8523L125.75 64.8441L125.503 64.8808L125.65 65.8726L125.897 65.8359L126.044 66.8277L125.797 66.8644L125.944 67.8562L126.192 67.8195L126.339 68.8113L126.091 68.848L126.239 69.8398L126.486 69.8031L126.633 70.7949L126.386 70.8316L126.533 71.8233L126.78 71.7867L126.927 72.7785L126.68 72.8151L126.827 73.8069L127.074 73.7702L127.222 74.762L126.974 74.7987L127.121 75.7905L127.369 75.7538L127.516 76.7456L127.269 76.7823L127.416 77.7741L127.663 77.7374L127.81 78.7292L127.563 78.7659L127.71 79.7577L127.957 79.721L128.104 80.7128L127.857 80.7495L128.004 81.7413L128.252 81.7046L128.399 82.6964L128.151 82.7331L128.299 83.7249L128.546 83.6882L128.693 84.68L128.446 84.7167L128.593 85.7084L128.84 85.6718L128.987 86.6636L128.74 86.7002L128.887 87.692L129.134 87.6553L129.282 88.6471L129.034 88.6838L129.181 89.6756L129.429 89.6389L129.576 90.6307L129.328 90.6674L129.476 91.6592L129.723 91.6225L129.87 92.6143L129.623 92.651L129.77 93.6428L130.017 93.6061L130.164 94.5979L129.917 94.6346L130.064 95.6264L130.311 95.5897L130.459 96.5815L130.211 96.6182L130.358 97.61L130.606 97.5733L130.753 98.5651L130.506 98.6017L130.653 99.5935L130.9 99.5568L131.047 100.549L130.8 100.585L130.947 101.577L131.194 101.54L131.341 102.532L131.094 102.569L131.241 103.561L131.489 103.524L131.636 104.516L131.388 104.553L131.536 105.544L131.783 105.508L131.93 106.499L131.683 106.536L131.83 107.528L132.077 107.491L132.224 108.483L131.977 108.52L132.124 109.511L132.371 109.475L132.519 110.467L132.271 110.503L132.418 111.495L132.666 111.458L132.813 112.45L132.566 112.487L132.713 113.479L132.96 113.442L133.107 114.434L132.86 114.47L133.007 115.462L133.254 115.426L133.401 116.417L133.154 116.454L133.301 117.446L133.549 117.409L133.696 118.401L133.448 118.438L133.595 119.429L133.843 119.393L133.99 120.384L133.743 120.421L133.89 121.413L134.137 121.376L134.284 122.368L134.037 122.405L134.184 123.397L134.431 123.36L134.578 124.352L134.331 124.388L134.478 125.38L134.726 125.343L134.873 126.335L134.625 126.372L134.773 127.364L135.02 127.327L135.167 128.319L134.92 128.356L135.067 129.347L135.314 129.311L135.461 130.302L135.214 130.339L135.361 131.331L135.608 131.294L135.756 132.286L135.508 132.323L135.655 133.314L135.903 133.278L136.05 134.27L135.803 134.306L135.95 135.298L136.197 135.261L136.344 136.253L136.097 136.29L136.244 137.282L136.491 137.245L136.638 138.237L136.391 138.273L136.538 139.265L136.786 139.229L136.933 140.22L136.685 140.257L136.833 141.249L137.08 141.212L137.227 142.204L136.98 142.241L137.127 143.232L137.374 143.196L137.521 144.188L137.274 144.224L137.421 145.216L137.668 145.179L137.816 146.171L137.568 146.208L137.715 147.2L137.963 147.163L138.11 148.155L137.862 148.191L138.01 149.183L138.257 149.146L138.404 150.138L138.157 150.175L138.304 151.167L138.551 151.13L138.698 152.122L138.451 152.159L138.598 153.15L138.845 153.114L138.993 154.105L138.745 154.142L138.892 155.134L139.14 155.097L139.287 156.089L139.04 156.126L139.113 156.621C139.129 156.727 139.134 156.834 139.128 156.939L139.378 156.952C139.366 157.197 139.305 157.438 139.2 157.66L138.974 157.553C138.929 157.648 138.875 157.74 138.811 157.826C138.747 157.912 138.675 157.991 138.597 158.061L138.765 158.247C138.583 158.412 138.37 158.539 138.139 158.622L138.055 158.387C137.955 158.423 137.852 158.449 137.746 158.465L137.251 158.538L137.287 158.785L136.296 158.933L136.259 158.685L135.268 158.832L135.305 159.08L134.313 159.227L134.276 158.979L133.285 159.127L133.322 159.374L132.33 159.521L132.294 159.274L131.302 159.421L131.339 159.668L130.348 159.815L130.311 159.568L129.319 159.715L129.356 159.962L128.365 160.109L128.328 159.862L127.337 160.009L127.373 160.256L126.382 160.403L126.345 160.156L125.354 160.303L125.39 160.55L124.399 160.698L124.362 160.45L123.371 160.597L123.408 160.845L122.416 160.992L122.379 160.744L121.388 160.891L121.425 161.139L120.433 161.286L120.397 161.039L119.405 161.186L119.442 161.433L118.45 161.58L118.414 161.333L117.422 161.48L117.459 161.727L116.468 161.874L116.431 161.627L115.44 161.774L115.476 162.021L114.485 162.168L114.448 161.921L113.457 162.068L113.493 162.315L112.502 162.463L112.465 162.215L111.474 162.362L111.511 162.61L110.519 162.757L110.482 162.509L109.491 162.656L109.528 162.904L108.536 163.051L108.5 162.804L107.508 162.951L107.545 163.198L106.553 163.345L106.517 163.098L105.525 163.245L105.562 163.492L104.571 163.639L104.534 163.392L103.543 163.539L103.579 163.786L102.588 163.933L102.551 163.686L101.56 163.833L101.596 164.08L100.605 164.228L100.568 163.98L99.5768 164.127L99.6135 164.375L98.6221 164.522L98.5854 164.274L97.594 164.421L97.6307 164.669L96.6393 164.816L96.6026 164.569L95.6112 164.716L95.6479 164.963L94.6564 165.11L94.6197 164.863L93.6283 165.01L93.665 165.257L92.6736 165.404L92.6369 165.157L91.6455 165.304L91.6822 165.551L90.6908 165.698L90.6541 165.451L89.6626 165.598L89.6993 165.845L88.7079 165.993L88.6712 165.745L87.6798 165.892L87.7165 166.14L86.7251 166.287L86.6884 166.039L85.697 166.186L85.7337 166.434L84.7422 166.581L84.7056 166.334L83.7141 166.481L83.7508 166.728L82.7594 166.875L82.7227 166.628L81.7313 166.775L81.768 167.022L80.7766 167.169L80.7399 166.922L79.7485 167.069L79.7851 167.316L78.7937 167.463L78.757 167.216L77.7656 167.363L77.8023 167.61L76.8109 167.758L76.7742 167.51L75.7828 167.657L75.8195 167.905L74.8281 168.052L74.7914 167.804L73.7999 167.951L73.8366 168.199L72.8452 168.346L72.8085 168.099L71.8171 168.246L71.8538 168.493L70.8624 168.64L70.8257 168.393L69.8343 168.54L69.871 168.787L68.8796 168.934L68.8429 168.687L67.8515 168.834L67.8881 169.081L66.8967 169.228L66.86 168.981L65.8686 169.128L65.9053 169.375L64.9139 169.522L64.8772 169.275L63.8858 169.422L63.9225 169.67L62.9311 169.817L62.8944 169.569L61.903 169.716L61.9397 169.964L60.9482 170.111L60.9116 169.864L59.9201 170.011L59.9568 170.258L58.9654 170.405L58.9287 170.158L58.4333 170.231C58.3274 170.247 58.221 170.252 58.1156 170.246L58.1032 170.496C57.8577 170.484 57.6169 170.423 57.3948 170.318L57.5017 170.092C57.4064 170.047 57.315 169.993 57.229 169.929C57.143 169.865 57.0642 169.793 56.9934 169.715L56.8082 169.883C56.6431 169.701 56.5153 169.488 56.4323 169.257L56.6676 169.173C56.632 169.073 56.6059 168.97 56.5901 168.864L56.5165 168.369Z" fill="white" stroke="black" stroke-width="0.5" stroke-dasharray="1 1"/>
    <path d="M89.3796 111.777C75.8198 116.042 67.6524 124.59 67.0491 135.32C67.039 135.307 67.0289 135.293 67.0187 135.28C62.0096 128.77 59.5246 123.905 58.9369 120.312C58.6441 118.521 58.8243 117.058 59.3866 115.864C59.9487 114.671 60.9036 113.723 62.2006 112.981C64.8065 111.491 68.7576 110.853 73.519 110.737C78.2224 110.623 83.6773 111.017 89.331 111.572L89.3796 111.777ZM66.4662 142.024C66.8744 140.252 67.2567 138.489 67.4419 136.765C69.0886 139.391 70.0023 142.532 70.9776 145.885C71.1816 146.586 71.3883 147.296 71.6049 148.013C72.9636 152.509 74.7071 157.215 78.669 161.297L69.1025 161.297C65.0975 157.328 64.585 153.022 65.1344 148.65C65.3784 146.708 65.831 144.76 66.2817 142.821C66.3434 142.555 66.4051 142.289 66.4662 142.024Z" fill="white" stroke="black" stroke-width="0.5"/>
    <path d="M101.285 105.496C101.318 105.479 101.351 105.461 101.384 105.444C100.996 112.968 96.9872 119.449 89.7423 124.211L89.7032 124.116C93.3267 121.685 94.5984 117.843 95.7666 114.251L95.79 114.179C96.9792 110.521 98.0703 107.166 101.285 105.496ZM85.5045 76.2432C85.5973 76.3215 85.6897 76.3999 85.7818 76.4784C85.7091 76.4369 85.6375 76.3951 85.5671 76.3529C84.6396 75.7966 83.7047 75.2324 82.7619 74.6635C71.6198 67.9394 59.3696 60.5467 45.0809 57.693L45.0861 57.5838C60.5478 60.6652 74.892 67.2886 85.5045 76.2432L85.6657 76.0521L85.5045 76.2432ZM115.521 96.5671C112.296 98.8402 107.843 101.493 101.912 104.604C102.047 95.7594 97.3033 86.5164 88.4806 78.2228C89.5548 78.6044 90.7321 78.9467 91.9811 79.2598C94.6289 79.9236 97.6169 80.4604 100.658 80.9604C101.686 81.1294 102.719 81.2941 103.747 81.458C108.82 82.2666 113.771 83.0559 117.338 84.2408C119.488 84.9551 121.081 85.7974 121.903 86.8313C122.309 87.341 122.525 87.8944 122.532 88.5076C122.54 89.1248 122.336 89.8252 121.863 90.6245C120.912 92.2301 118.905 94.1817 115.521 96.5671Z" fill="#F0F0F0" stroke="black" stroke-width="0.5"/>
    <path d="M97.9113 77.7412C97.8086 77.74 97.7058 77.7376 97.603 77.7337C97.6402 77.6873 97.6765 77.64 97.7118 77.5919C98.6992 77.6319 99.6888 77.5193 100.645 77.2566L100.649 77.2556C101.826 76.9146 102.959 76.2388 103.571 75.0865C104.098 74.0925 104.236 72.8124 103.551 71.7994C103.541 71.7822 103.538 71.7618 103.542 71.7421C103.546 71.7217 103.558 71.7036 103.575 71.6919C103.592 71.6801 103.614 71.6755 103.634 71.6791L103.677 71.4329L103.634 71.6791C103.654 71.6825 103.672 71.693 103.684 71.7085C104.266 72.5694 104.301 73.6587 103.94 74.6497C103.506 75.8443 102.609 76.6214 101.511 77.1002C100.408 77.5808 99.1108 77.7553 97.9113 77.7412ZM97.1059 77.5482C97.0635 77.5966 97.0198 77.644 96.9749 77.6904C96.908 77.6835 96.8413 77.6757 96.7748 77.6671C96.8222 77.6214 96.8684 77.5744 96.9134 77.5263C96.9775 77.5342 97.0417 77.5416 97.1059 77.5482ZM97.79 76.3824C97.7047 76.6291 97.5924 76.8608 97.4571 77.0771C97.3979 77.0729 97.3388 77.0681 97.2797 77.0628C97.4273 76.8396 97.5502 76.5963 97.6425 76.3326C98.0003 75.3106 97.8859 73.936 96.9166 73.1867L96.9166 73.1866L96.911 73.1825C96.5756 72.9378 96.1827 72.7836 95.7704 72.7349C95.3581 72.6862 94.9401 72.7445 94.5569 72.9043L94.5569 72.9043L94.5539 72.9056C93.54 73.3439 93.3049 74.4763 93.6191 75.3883C94.0371 76.6014 95.1898 77.1851 96.2994 77.4248C96.248 77.4697 96.1951 77.5132 96.141 77.5553C95.4888 77.4062 94.8786 77.1499 94.3671 76.7257C93.5143 76.0184 93.0761 74.8164 93.4712 73.7918C93.7613 73.0395 94.4586 72.6381 95.2406 72.5764C96.0275 72.5143 96.8522 72.8024 97.3455 73.3751C98.039 74.1803 98.1418 75.3648 97.79 76.3824ZM72.5204 96.2632C72.2742 96.3388 72.0348 96.4316 71.8038 96.5406C71.7655 96.5061 71.7273 96.4714 71.6892 96.4367C72.1851 96.1957 72.7146 96.0194 73.2489 95.9147C75.437 95.4857 77.819 96.1063 79.6164 97.421C81.6562 98.913 82.9924 101.222 83.8542 103.599C84.6604 105.823 85.0571 108.152 85.4571 110.501C85.541 110.994 85.6251 111.487 85.7131 111.981C86.2086 114.76 86.88 117.542 88.2853 120.055L88.2856 120.056C89.4559 122.135 90.9821 123.993 92.7945 125.545C96.4107 128.656 101.103 130.558 105.905 130.558C105.941 130.558 105.957 130.569 105.968 130.581C105.982 130.597 105.995 130.623 105.997 130.655C105.999 130.687 105.99 130.705 105.986 130.709C105.985 130.711 105.984 130.711 105.982 130.712C105.98 130.713 105.971 130.717 105.95 130.717L105.95 130.717C104.878 130.718 103.807 130.629 102.75 130.452C98.3662 129.676 94.3424 127.527 91.2596 124.316L91.2589 124.315C89.7184 122.723 88.4517 120.888 87.5102 118.883C86.3501 116.394 85.8398 113.673 85.3733 110.945C85.3524 110.824 85.3316 110.702 85.3108 110.58C84.8778 108.04 84.4376 105.459 83.4627 103.024C82.5662 100.785 81.1523 98.5235 79.0149 97.2046C77.1304 96.0418 74.6828 95.5646 72.5204 96.2632ZM96.2563 78.0904C96.3293 78.1045 96.4024 78.1173 96.4757 78.1291C96.147 78.3755 95.7801 78.5795 95.3916 78.7383C94.1415 79.2495 92.7477 79.2598 91.3919 79.0521C90.2238 78.8731 89.0773 78.5702 87.9205 78.2644C87.5682 78.1713 87.2149 78.0779 86.8598 77.9878C83.9089 77.2383 80.8698 76.5153 77.7691 76.5332C75.3918 76.547 72.8226 77.1217 70.6834 78.3293C68.5414 79.5384 66.8204 81.3891 66.1768 83.9509C65.4995 86.6471 66.125 89.5384 67.4027 91.9272C68.2926 93.5909 69.5003 95.0388 70.8473 96.3335C70.802 96.3618 70.7572 96.3908 70.7127 96.4202C70.5159 96.2304 70.3218 96.0378 70.1303 95.8426C68.338 93.9841 66.8804 91.8146 66.1865 89.3323C65.527 86.9731 65.5561 84.4055 66.6504 82.2093C68.6808 78.1346 73.556 76.3505 77.9436 76.3738C80.8144 76.3891 83.6384 77.0119 86.4391 77.7161C86.8459 77.8183 87.2545 77.9254 87.6646 78.0329C88.6917 78.3021 89.7287 78.5739 90.7741 78.7798C92.1262 79.0461 93.5816 79.172 94.9599 78.7243C95.413 78.5771 95.8574 78.3665 96.2563 78.0904ZM68.9393 99.8774C69.0977 98.7205 69.7618 97.7624 70.6663 97.0665C70.7041 97.1019 70.7419 97.1373 70.7799 97.1726C70.4509 97.4306 70.1514 97.7275 69.8885 98.0583L69.8885 98.0582L69.8855 98.0622C69.2945 98.8366 68.8671 99.9692 69.1467 101.002C69.4606 102.162 70.5666 102.758 71.623 102.787C72.6833 102.817 73.7938 102.275 74.0911 101.056L74.0914 101.055C74.2025 100.589 74.1728 100.101 74.006 99.6528C73.8397 99.2057 73.5447 98.818 73.1582 98.5385C72.6176 98.119 72.0917 97.6813 71.5813 97.2262C71.6293 97.1973 71.6778 97.1692 71.7268 97.1419C72.1844 97.5452 72.6528 97.9334 73.1258 98.3089L73.1255 98.3091L73.1364 98.3169C73.521 98.59 73.8385 98.9468 74.065 99.3604C74.339 99.9195 74.3959 100.56 74.2245 101.159C74.0534 101.757 73.667 102.27 73.14 102.599C72.6392 102.865 72.075 102.987 71.5092 102.952C70.9413 102.918 70.394 102.726 69.9281 102.4C69.1306 101.824 68.8044 100.862 68.9393 99.8774ZM71.2236 96.6881C71.2608 96.7224 71.298 96.7566 71.3353 96.7907C71.2886 96.8187 71.2422 96.8474 71.1963 96.8768C71.1591 96.8425 71.122 96.8081 71.085 96.7735C71.1308 96.7444 71.177 96.7159 71.2236 96.6881Z" stroke="black" stroke-width="0.5"/>
    <path d="M65.148 107.267C61.5068 107.516 65.4002 104.505 65.1506 100.863C65.0908 99.9974 65.2023 99.1281 65.4786 98.3052C65.7549 97.4823 66.1906 96.7219 66.7608 96.0674C67.3311 95.4129 68.0247 94.8772 68.8021 94.4908C69.5794 94.1045 70.4253 93.875 71.2913 93.8157C72.1573 93.7563 73.0266 93.8681 73.8494 94.1448C74.6722 94.4215 75.4324 94.8575 76.0867 95.4281C76.7409 95.9986 77.2763 96.6924 77.6623 97.47C78.0483 98.2475 78.2774 99.0934 78.3364 99.9595C78.586 103.601 68.7891 107.017 65.148 107.267Z" fill="black"/>
    <path d="M82.749 163.744C74.3118 155.477 75.5328 144.432 70.2991 137.63C50.2402 111.558 70.1363 111.283 93.0116 113.538L93.1552 114.143C79.4392 118.392 71.2791 126.986 70.7674 137.722C70.3696 146.065 64.1881 155.621 72.4785 163.744L82.749 163.744Z" fill="#F0F0F0"/>
    <path d="M96.3642 79.485C95.5312 79.5421 94.6951 79.4346 93.9036 79.1685C93.1121 78.9025 92.3807 78.4832 91.7513 77.9345C91.1219 77.3859 90.6067 76.7186 90.2351 75.9708C89.8636 75.223 89.643 74.4094 89.5859 73.5764C89.5174 72.5776 88.9524 71.7558 88.2479 71.0921C87.543 70.4279 86.673 69.8982 85.9444 69.4852C85.783 69.3937 85.6309 69.3093 85.4888 69.2303C85.3038 69.1276 85.1356 69.0342 84.985 68.9464C84.8025 68.8401 84.669 68.7548 84.5805 68.6876C84.6161 68.6791 84.6586 68.6705 84.7088 68.662C84.8426 68.6394 85.0177 68.6202 85.2409 68.6049C87.0381 68.4817 91.28 68.653 95.1025 69.3099C97.0142 69.6384 98.8038 70.0855 100.125 70.6698C100.786 70.962 101.316 71.2828 101.685 71.6298C102.053 71.9753 102.247 72.3332 102.273 72.7066C102.33 73.5397 102.222 74.3758 101.956 75.1673C101.69 75.9587 101.271 76.6901 100.722 77.3195C100.174 77.9489 99.5064 78.4641 98.7587 78.8357C98.0109 79.2072 97.1973 79.4279 96.3642 79.485ZM84.4664 68.5811C84.4666 68.5811 84.4674 68.5823 84.4686 68.5847C84.4669 68.5823 84.4663 68.5811 84.4664 68.5811ZM84.4367 68.7369C84.4351 68.7382 84.4341 68.7388 84.434 68.7388C84.4339 68.7387 84.4348 68.7381 84.4367 68.7369Z" fill="#C4C4C4" stroke="black" stroke-width="0.5"/>
    <path d="M96.1762 82.8203C95.3104 82.8797 94.4414 82.7679 93.6188 82.4914C92.7962 82.215 92.0361 81.7791 91.382 81.2089C90.7278 80.6387 90.1923 79.9452 89.8062 79.168C89.42 78.3908 89.1907 77.5452 89.1314 76.6794C88.8817 73.0383 81.3776 71.6911 85.0187 71.4414C88.6599 71.1918 102.068 72.1343 102.317 75.7755C102.377 76.6412 102.265 77.5102 101.988 78.3328C101.712 79.1554 101.276 79.9155 100.706 80.5697C100.136 81.2239 99.442 81.7593 98.6648 82.1455C97.8877 82.5317 97.042 82.761 96.1762 82.8203Z" fill="black"/>
    <path d="M87.7472 147.512L87.7464 147.511C87.3656 147.287 86.9939 147.048 86.6313 146.794L86.6302 146.793C85.4436 145.97 84.3605 145.008 83.4046 143.926L83.4046 143.926L83.4027 143.924C83.2385 143.742 83.0803 143.558 82.9259 143.37C82.3812 142.704 81.8841 141.999 81.4385 141.263C81.3599 141.129 81.2811 140.994 81.2018 140.857L81.201 140.856C81.2008 140.855 81.2006 140.855 81.2004 140.855C79.0795 137.12 78.3525 132.753 79.1487 128.532C79.9449 124.311 82.213 120.509 85.5494 117.803C88.8857 115.097 93.0739 113.663 97.3686 113.755C101.663 113.847 105.786 115.46 109.003 118.307L109.004 118.308C109.175 118.457 109.342 118.61 109.507 118.769L109.508 118.769C111.157 120.339 112.495 122.206 113.451 124.273C113.455 124.282 113.459 124.29 113.463 124.298C114.888 127.399 115.412 130.839 114.977 134.224L114.974 134.248L114.974 134.252C114.965 134.319 114.956 134.383 114.946 134.447L114.946 134.447L114.945 134.453C114.648 136.557 114.355 138.052 113.951 139.129C113.55 140.196 113.047 140.831 112.338 141.239C111.616 141.656 110.651 141.854 109.287 141.981C108.513 142.053 107.63 142.101 106.608 142.157C105.822 142.2 104.954 142.247 103.989 142.313C102.976 142.383 101.626 142.871 100.153 143.51C99.2197 143.915 98.2178 144.389 97.2024 144.87C96.6096 145.15 96.0123 145.433 95.4212 145.706C93.8085 146.449 92.2351 147.119 90.8771 147.491C90.1985 147.676 89.5833 147.784 89.0502 147.793C88.5165 147.801 88.0811 147.71 87.7472 147.512ZM113.519 124.367C113.519 124.367 113.519 124.367 113.518 124.366L113.518 124.366L113.519 124.367L113.519 124.367Z" fill="white" stroke="black" stroke-width="0.5"/>
    <path d="M105.922 144.563C102.061 144.827 92.6312 151.563 89.5356 149.727C89.1491 149.499 88.7718 149.256 88.4038 148.998C87.2006 148.164 86.1025 147.189 85.1332 146.092C84.966 145.907 84.8052 145.719 84.6487 145.529C84.096 144.853 83.5918 144.138 83.1398 143.391C83.0598 143.255 82.9797 143.117 82.8996 142.979C80.749 139.192 80.0118 134.765 80.819 130.486C81.6263 126.206 83.9256 122.352 87.3079 119.609C90.6902 116.866 94.9361 115.412 99.29 115.505C103.644 115.599 107.823 117.234 111.085 120.12C111.259 120.271 111.428 120.428 111.596 120.588C113.271 122.182 114.628 124.078 115.598 126.176C115.598 126.178 115.6 126.178 115.6 126.18C117.049 129.328 117.583 132.819 117.141 136.256L117.141 136.26C117.131 136.336 117.121 136.412 117.108 136.487C115.922 144.908 114.746 143.958 105.922 144.563Z" fill="black"/>
    <circle cx="145" cy="143" r="27.75" fill="white" stroke="black" stroke-width="0.5"/>
    <circle cx="145" cy="143" r="25.75" fill="white" stroke="black" stroke-width="0.5" stroke-dasharray="1 1"/>
    <path d="M143.749 147.549L136.336 142.929L143.724 129.943L143.749 147.549Z" fill="white" stroke="black" stroke-width="0.5"/>
    <path d="M145.276 147.549L145.251 129.945L152.664 142.929L145.276 147.549Z" fill="white" stroke="black" stroke-width="0.5"/>
    <path d="M145.25 155.174V149.181L152.142 144.837L145.25 155.174Z" fill="white" stroke="black" stroke-width="0.5"/>
    <path d="M143.75 149.181V155.174L136.858 144.837L143.75 149.181Z" fill="white" stroke="black" stroke-width="0.5"/>
    <circle cx="161" cy="161" r="22.75" fill="white" stroke="black" stroke-width="0.5"/>
    <circle cx="161" cy="161" r="20.75" fill="white" stroke="black" stroke-width="0.5" stroke-dasharray="1 1"/>
    <path d="M160.321 165.156L154.336 161.426L160.3 150.943L160.321 165.156Z" fill="white" stroke="black" stroke-width="0.5"/>
    <path d="M161.664 165.156L161.644 150.945L167.628 161.427L161.664 165.156Z" fill="white" stroke="black" stroke-width="0.5"/>
    <path d="M161.643 171.353V166.602L167.106 163.158L161.643 171.353Z" fill="white" stroke="black" stroke-width="0.5"/>
    <path d="M160.321 166.602V171.353L154.858 163.158L160.321 166.602Z" fill="white" stroke="black" stroke-width="0.5"/>
</svg>
