<svg width="220" height="220" viewBox="0 0 220 220" fill="none" xmlns="http://www.w3.org/2000/svg">
    <circle cx="110" cy="110" r="110" fill="#B3B3B3"/>
    <path d="M103.749 124.56L89.3429 115.99L103.7 91.9053L103.749 124.56Z" fill="white" stroke="black" stroke-width="0.5"/>
    <path d="M105.3 124.56L105.251 91.9072L119.657 115.991L105.3 124.56Z" fill="white" stroke="black" stroke-width="0.5"/>
    <path d="M105.25 139.22V127.969L119.113 119.812L105.25 139.22Z" fill="white" stroke="black" stroke-width="0.5"/>
    <path d="M103.75 127.969V139.22L89.8874 119.812L103.75 127.969Z" fill="white" stroke="black" stroke-width="0.5"/>
    <path d="M141.75 76C141.75 79.1756 139.176 81.75 136 81.75C132.824 81.75 130.25 79.1756 130.25 76C130.25 72.8244 132.824 70.25 136 70.25C139.176 70.25 141.75 72.8244 141.75 76Z" fill="white" stroke="black" stroke-width="0.5"/>
    <path d="M122.75 175C122.75 178.176 120.176 180.75 117 180.75C113.824 180.75 111.25 178.176 111.25 175C111.25 171.824 113.824 169.25 117 169.25C120.176 169.25 122.75 171.824 122.75 175Z" fill="white" stroke="black" stroke-width="0.5"/>
    <path d="M89.75 74.5C89.75 80.1609 85.1609 84.75 79.5 84.75C73.8391 84.75 69.25 80.1609 69.25 74.5C69.25 68.8391 73.8391 64.25 79.5 64.25C85.1609 64.25 89.75 68.8391 89.75 74.5Z" fill="white" stroke="black" stroke-width="0.5"/>
    <path d="M74.75 155C74.75 158.176 72.1756 160.75 69 160.75C65.8244 160.75 63.25 158.176 63.25 155C63.25 151.824 65.8244 149.25 69 149.25C72.1756 149.25 74.75 151.824 74.75 155Z" fill="white" stroke="black" stroke-width="0.5"/>
    <path d="M111 96L130 81" stroke="black" stroke-width="0.5"/>
    <path d="M41 100.499V100.5C41 100.994 41.1466 101.478 41.4213 101.889C41.696 102.3 42.0865 102.62 42.5433 102.81C43.0001 102.999 43.5028 103.048 43.9877 102.952C44.4727 102.855 44.9181 102.617 45.2677 102.268C45.6174 101.918 45.8555 101.473 45.9519 100.988C46.0484 100.503 45.9989 100 45.8097 99.5433C45.6205 99.0865 45.3 98.696 44.8889 98.4213C44.4778 98.1466 43.9945 98 43.5 98L43.4992 98C42.837 98.0022 42.2026 98.2662 41.7344 98.7344C41.2662 99.2026 41.0022 99.837 41 100.499ZM38.7501 106.674L38.7482 106.754L38.793 106.82C39.3139 107.59 40.0148 108.221 40.8348 108.659C41.6549 109.097 42.5694 109.327 43.4989 109.332L43.5014 109.332C44.4306 109.327 45.3447 109.095 46.1646 108.658C46.9844 108.22 47.6854 107.59 48.2069 106.821L48.2519 106.754L48.2499 106.674C48.2388 106.211 48.0007 105.819 47.6639 105.502C47.3282 105.186 46.8781 104.928 46.3962 104.725C45.4336 104.318 44.2846 104.105 43.5 104.105C42.7154 104.105 41.5665 104.318 40.6038 104.725C40.1219 104.928 39.6718 105.186 39.3361 105.502C38.9993 105.819 38.7612 106.211 38.7501 106.674ZM39.4721 97.4718C40.6643 96.6753 42.0659 96.2501 43.4996 96.25C45.4208 96.2557 47.2616 97.0214 48.6201 98.3799C49.9786 99.7384 50.7443 101.579 50.75 103.5C50.7499 104.934 50.3247 106.336 49.5282 107.528C48.7315 108.72 47.5992 109.649 46.2745 110.198C44.9497 110.747 43.4919 110.89 42.0856 110.611C40.6792 110.331 39.3874 109.64 38.3735 108.627C37.3595 107.613 36.6691 106.321 36.3893 104.914C36.1096 103.508 36.2531 102.05 36.8019 100.726C37.3506 99.4008 38.2799 98.2685 39.4721 97.4718Z" fill="white" stroke="black" stroke-width="0.5"/>
    <path d="M158 158.499V158.5C158 158.994 158.147 159.478 158.421 159.889C158.696 160.3 159.086 160.62 159.543 160.81C160 160.999 160.503 161.048 160.988 160.952C161.473 160.855 161.918 160.617 162.268 160.268C162.617 159.918 162.855 159.473 162.952 158.988C163.048 158.503 162.999 158 162.81 157.543C162.62 157.086 162.3 156.696 161.889 156.421C161.478 156.147 160.994 156 160.5 156L160.499 156C159.837 156.002 159.203 156.266 158.734 156.734C158.266 157.203 158.002 157.837 158 158.499ZM155.75 164.674L155.748 164.754L155.793 164.82C156.314 165.59 157.015 166.221 157.835 166.659C158.655 167.097 159.569 167.327 160.499 167.332L160.501 167.332C161.431 167.327 162.345 167.095 163.165 166.658C163.984 166.22 164.685 165.59 165.207 164.821L165.252 164.754L165.25 164.674C165.239 164.211 165.001 163.819 164.664 163.502C164.328 163.186 163.878 162.928 163.396 162.725C162.434 162.318 161.285 162.105 160.5 162.105C159.715 162.105 158.566 162.318 157.604 162.725C157.122 162.928 156.672 163.186 156.336 163.502C155.999 163.819 155.761 164.211 155.75 164.674ZM156.472 155.472C157.664 154.675 159.066 154.25 160.5 154.25C162.421 154.256 164.262 155.021 165.62 156.38C166.979 157.738 167.744 159.579 167.75 161.5C167.75 162.934 167.325 164.336 166.528 165.528C165.732 166.72 164.599 167.649 163.274 168.198C161.95 168.747 160.492 168.89 159.086 168.611C157.679 168.331 156.387 167.64 155.373 166.627C154.36 165.613 153.669 164.321 153.389 162.914C153.11 161.508 153.253 160.05 153.802 158.726C154.351 157.401 155.28 156.268 156.472 155.472Z" fill="white" stroke="black" stroke-width="0.5"/>
    <path d="M80 42.4992V42.5C80 42.9944 80.1466 43.4778 80.4213 43.8889C80.696 44.3001 81.0865 44.6205 81.5433 44.8097C82.0001 44.9989 82.5028 45.0484 82.9877 44.952C83.4727 44.8555 83.9181 44.6174 84.2677 44.2678C84.6174 43.9181 84.8555 43.4727 84.9519 42.9877C85.0484 42.5028 84.9989 42.0001 84.8097 41.5433C84.6205 41.0865 84.3 40.696 83.8889 40.4213C83.4778 40.1466 82.9945 40 82.5 40L82.4992 40C81.837 40.0022 81.2026 40.2662 80.7344 40.7344C80.2662 41.2026 80.0022 41.837 80 42.4992ZM77.7501 48.6743L77.7482 48.7542L77.793 48.8204C78.3139 49.5902 79.0148 50.2213 79.8348 50.6589C80.6549 51.0965 81.5694 51.3275 82.4989 51.3317L82.5014 51.3317C83.4306 51.3267 84.3447 51.0954 85.1646 50.6579C85.9844 50.2203 86.6854 49.5898 87.2069 48.8206L87.2519 48.7543L87.2499 48.6743C87.2388 48.211 87.0007 47.819 86.6639 47.502C86.3282 47.186 85.8781 46.9281 85.3962 46.7246C84.4336 46.3181 83.2846 46.1046 82.5 46.1046C81.7154 46.1046 80.5665 46.3181 79.6038 46.7246C79.1219 46.9281 78.6718 47.186 78.3361 47.502C77.9993 47.819 77.7612 48.211 77.7501 48.6743ZM78.4721 39.4718C79.6643 38.6753 81.0659 38.2501 82.4996 38.25C84.4208 38.2557 86.2616 39.0214 87.6201 40.3799C88.9786 41.7384 89.7443 43.5792 89.75 45.5004C89.7499 46.9342 89.3247 48.3357 88.5282 49.5279C87.7315 50.7201 86.5992 51.6494 85.2745 52.1981C83.9497 52.7469 82.4919 52.8904 81.0856 52.6107C79.6792 52.3309 78.3874 51.6405 77.3735 50.6265C76.3595 49.6126 75.6691 48.3208 75.3893 46.9144C75.1096 45.508 75.2531 44.0503 75.8019 42.7255C76.3506 41.4008 77.2799 40.2685 78.4721 39.4718Z" fill="white" stroke="black" stroke-width="0.5"/>
    <path d="M165.85 110.799V110.8C165.85 111.621 166.093 112.423 166.549 113.106C167.005 113.788 167.654 114.32 168.412 114.634C169.17 114.948 170.005 115.03 170.81 114.87C171.615 114.71 172.354 114.315 172.934 113.734C173.515 113.154 173.91 112.415 174.07 111.61C174.23 110.805 174.148 109.97 173.834 109.212C173.52 108.454 172.988 107.805 172.306 107.349C171.623 106.893 170.821 106.65 170 106.65L169.999 106.65C168.9 106.654 167.847 107.092 167.069 107.869C166.292 108.647 165.854 109.7 165.85 110.799ZM161.95 121.506L161.948 121.586L161.993 121.653C162.879 122.962 164.072 124.036 165.467 124.78C166.862 125.525 168.418 125.918 169.999 125.925L170.001 125.925C171.582 125.916 173.137 125.523 174.532 124.779C175.927 124.034 177.12 122.961 178.007 121.653L178.052 121.587L178.05 121.506C178.032 120.768 177.653 120.132 177.092 119.604C176.531 119.076 175.773 118.639 174.949 118.292C173.302 117.596 171.335 117.231 170 117.231C168.665 117.231 166.698 117.596 165.051 118.292C164.227 118.639 163.469 119.076 162.908 119.604C162.347 120.132 161.968 120.768 161.95 121.506ZM162.916 105.399C165.013 103.998 167.478 103.25 170 103.25C173.378 103.26 176.615 104.607 179.004 106.996C181.393 109.384 182.74 112.622 182.75 116C182.75 118.522 182.002 120.987 180.601 123.084C179.2 125.18 177.209 126.814 174.879 127.779C172.549 128.744 169.986 128.997 167.513 128.505C165.039 128.013 162.768 126.799 160.984 125.016C159.201 123.232 157.987 120.961 157.495 118.487C157.003 116.014 157.256 113.451 158.221 111.121C159.186 108.791 160.82 106.8 162.916 105.399Z" fill="white" stroke="black" stroke-width="0.5"/>
    <path d="M142 82L160 104" stroke="black" stroke-width="0.5"/>
    <path d="M169 131L164 153" stroke="black" stroke-width="0.5"/>
    <path d="M87.5 85.5L96.5 96.5" stroke="black" stroke-width="0.5"/>
    <path d="M92.5 74.5L128 75" stroke="black" stroke-width="0.5"/>
    <path d="M82 54L80 63" stroke="black" stroke-width="0.5"/>
    <path d="M70 84L50 98" stroke="black" stroke-width="0.5"/>
    <path d="M93 136L77 149" stroke="black" stroke-width="0.5"/>
    <path d="M108 173L77 160" stroke="black" stroke-width="0.5"/>
</svg>
