<svg width="220" height="220" viewBox="0 0 220 220" fill="none" xmlns="http://www.w3.org/2000/svg">
    <circle cx="110" cy="110" r="110" fill="#B3B3B3"/>
    <path d="M130.748 166.791L46.6223 179.271C46.1669 179.338 45.7035 179.222 45.3337 178.948C44.964 178.673 44.7181 178.264 44.6499 177.808L26.5389 55.7295C26.4718 55.2739 26.5882 54.8103 26.8624 54.4405C27.1365 54.0706 27.5461 53.8247 28.0013 53.7566L112.127 41.2761C112.582 41.2091 113.046 41.3255 113.416 41.5998C113.785 41.8742 114.031 42.2841 114.099 42.7396L132.21 164.818C132.277 165.274 132.161 165.737 131.887 166.107C131.613 166.477 131.203 166.723 130.748 166.791Z" fill="white" stroke="black" stroke-width="0.5"/>
    <path d="M46.5165 173.106L46.2692 173.143L46.1221 172.151L46.3694 172.114L46.2223 171.122L45.975 171.159L45.8278 170.167L46.0751 170.131L45.928 169.139L45.6807 169.175L45.5335 168.184L45.7808 168.147L45.6337 167.155L45.3864 167.192L45.2393 166.2L45.4866 166.163L45.3394 165.172L45.0921 165.208L44.945 164.216L45.1923 164.18L45.0451 163.188L44.7979 163.225L44.6507 162.233L44.898 162.196L44.7509 161.204L44.5036 161.241L44.3564 160.249L44.6037 160.213L44.4566 159.221L44.2093 159.257L44.0622 158.266L44.3095 158.229L44.1623 157.237L43.915 157.274L43.7679 156.282L44.0152 156.245L43.868 155.254L43.6207 155.29L43.4736 154.299L43.7209 154.262L43.5738 153.27L43.3265 153.307L43.1793 152.315L43.4266 152.278L43.2795 151.286L43.0322 151.323L42.8851 150.331L43.1324 150.295L42.9852 149.303L42.7379 149.34L42.5908 148.348L42.8381 148.311L42.6909 147.319L42.4436 147.356L42.2965 146.364L42.5438 146.327L42.3967 145.336L42.1494 145.372L42.0022 144.381L42.2495 144.344L42.1024 143.352L41.8551 143.389L41.708 142.397L41.9552 142.36L41.8081 141.369L41.5608 141.405L41.4137 140.413L41.661 140.377L41.5138 139.385L41.2665 139.422L41.1194 138.43L41.3667 138.393L41.2196 137.401L40.9723 137.438L40.8251 136.446L41.0724 136.41L40.9253 135.418L40.678 135.454L40.5308 134.463L40.7781 134.426L40.631 133.434L40.3837 133.471L40.2366 132.479L40.4839 132.442L40.3367 131.451L40.0894 131.487L39.9423 130.495L40.1896 130.459L40.0425 129.467L39.7952 129.504L39.648 128.512L39.8953 128.475L39.7482 127.483L39.5009 127.52L39.3537 126.528L39.601 126.492L39.4539 125.5L39.2066 125.537L39.0595 124.545L39.3068 124.508L39.1596 123.516L38.9123 123.553L38.7652 122.561L39.0125 122.524L38.8653 121.533L38.6181 121.569L38.4709 120.578L38.7182 120.541L38.5711 119.549L38.3238 119.586L38.1766 118.594L38.4239 118.557L38.2768 117.565L38.0295 117.602L37.8824 116.61L38.1297 116.574L37.9825 115.582L37.7352 115.619L37.5881 114.627L37.8354 114.59L37.6882 113.598L37.4409 113.635L37.2938 112.643L37.5411 112.607L37.394 111.615L37.1467 111.651L36.9995 110.66L37.2468 110.623L37.0997 109.631L36.8524 109.668L36.7053 108.676L36.9526 108.639L36.8054 107.648L36.5581 107.684L36.411 106.692L36.6583 106.656L36.5111 105.664L36.2638 105.701L36.1167 104.709L36.364 104.672L36.2169 103.68L35.9696 103.717L35.8224 102.725L36.0697 102.689L35.9226 101.697L35.6753 101.733L35.5282 100.742L35.7754 100.705L35.6283 99.7132L35.381 99.7499L35.2339 98.7581L35.4812 98.7214L35.334 97.7296L35.0867 97.7663L34.9396 96.7745L35.1869 96.7378L35.0398 95.7461L34.7925 95.7827L34.6453 94.7909L34.8926 94.7543L34.7455 93.7625L34.4982 93.7992L34.3511 92.8074L34.5983 92.7707L34.4512 91.7789L34.2039 91.8156L34.0568 90.8238L34.3041 90.7871L34.1569 89.7953L33.9096 89.832L33.7625 88.8402L34.0098 88.8035L33.8627 87.8117L33.6154 87.8484L33.4682 86.8566L33.7155 86.8199L33.5684 85.8281L33.3211 85.8648L33.1739 84.873L33.4212 84.8363L33.2741 83.8445L33.0268 83.8812L32.8797 82.8894L33.127 82.8527L32.9798 81.861L32.7325 81.8976L32.5854 80.9058L32.8327 80.8692L32.6856 79.8774L32.4383 79.9141L32.2911 78.9223L32.5384 78.8856L32.3913 77.8938L32.144 77.9305L31.9968 76.9387L32.2441 76.902L32.097 75.9102L31.8497 75.9469L31.7026 74.9551L31.9499 74.9184L31.8027 73.9266L31.5554 73.9633L31.4083 72.9715L31.6556 72.9348L31.5084 71.943L31.2612 71.9797L31.114 70.9879L31.3613 70.9512L31.2142 69.9594L30.9669 69.9961L30.8197 69.0043L31.067 68.9677L30.9199 67.9759L30.6726 68.0125L30.5255 67.0208L30.7728 66.9841L30.6256 65.9923L30.3783 66.029L30.2312 65.0372L30.4785 65.0005L30.3313 64.0087L30.084 64.0454L29.9369 63.0536L30.1842 63.0169L30.0371 62.0251L29.7898 62.0618L29.6426 61.07L29.8899 61.0333L29.7428 60.0415L29.4955 60.0782L29.3484 59.0864L29.5957 59.0497L29.5221 58.5538C29.5065 58.448 29.5015 58.3417 29.5068 58.2363L29.2571 58.2239C29.2694 57.9784 29.3298 57.7376 29.435 57.5155L29.6609 57.6224C29.706 57.5271 29.7607 57.4357 29.8244 57.3497C29.8882 57.2637 29.9598 57.1849 30.038 57.114L29.87 56.9289C30.0521 56.7638 30.2649 56.636 30.4962 56.553L30.5807 56.7883C30.6799 56.7527 30.7831 56.7266 30.8889 56.7108L31.3845 56.6373L31.3478 56.39L32.3392 56.2429L32.3759 56.4902L33.3673 56.3431L33.3306 56.0958L34.3221 55.9487L34.3588 56.196L35.3502 56.0489L35.3135 55.8016L36.3049 55.6546L36.3416 55.9019L37.333 55.7548L37.2963 55.5075L38.2877 55.3604L38.3244 55.6077L39.3158 55.4606L39.2792 55.2133L40.2706 55.0662L40.3073 55.3135L41.2987 55.1664L41.262 54.9191L42.2534 54.7721L42.2901 55.0194L43.2815 54.8723L43.2448 54.625L44.2363 54.4779L44.2729 54.7252L45.2644 54.5781L45.2277 54.3308L46.2191 54.1837L46.2558 54.431L47.2472 54.2839L47.2105 54.0366L48.2019 53.8896L48.2386 54.1369L49.23 53.9898L49.1933 53.7425L50.1848 53.5954L50.2215 53.8427L51.2129 53.6956L51.1762 53.4483L52.1676 53.3012L52.2043 53.5485L53.1957 53.4014L53.159 53.1542L54.1504 53.0071L54.1871 53.2544L55.1785 53.1073L55.1419 52.86L56.1333 52.7129L56.17 52.9602L57.1614 52.8131L57.1247 52.5658L58.1161 52.4187L58.1528 52.666L59.1442 52.519L59.1075 52.2717L60.099 52.1246L60.1356 52.3719L61.1271 52.2248L61.0904 51.9775L62.0818 51.8304L62.1185 52.0777L63.1099 51.9306L63.0732 51.6833L64.0646 51.5362L64.1013 51.7835L65.0927 51.6365L65.056 51.3892L66.0475 51.2421L66.0842 51.4894L67.0756 51.3423L67.0389 51.095L68.0303 50.9479L68.067 51.1952L69.0584 51.0481L69.0217 50.8008L70.0131 50.6538L70.0498 50.901L71.0412 50.754L71.0046 50.5067L71.996 50.3596L72.0327 50.6069L73.0241 50.4598L72.9874 50.2125L73.9788 50.0654L74.0155 50.3127L75.0069 50.1656L74.9702 49.9183L75.9617 49.7713L75.9983 50.0185L76.9898 49.8715L76.9531 49.6242L77.9445 49.4771L77.9812 49.7244L78.9726 49.5773L78.9359 49.33L79.9273 49.1829L79.964 49.4302L80.9554 49.2831L80.9187 49.0358L81.9102 48.8888L81.9469 49.1361L82.9383 48.989L82.9016 48.7417L83.893 48.5946L83.9297 48.8419L84.9211 48.6948L84.8844 48.4475L85.8758 48.3004L85.9125 48.5477L86.9039 48.4006L86.8673 48.1533L87.8587 48.0063L87.8954 48.2536L88.8868 48.1065L88.8501 47.8592L89.8415 47.7121L89.8782 47.9594L90.8696 47.8123L90.8329 47.565L91.8244 47.4179L91.861 47.6652L92.8525 47.5181L92.8158 47.2709L93.8072 47.1238L93.8439 47.3711L94.8353 47.224L94.7986 46.9767L95.79 46.8296L95.8267 47.0769L96.8181 46.9298L96.7814 46.6825L97.7729 46.5354L97.8095 46.7827L98.801 46.6357L98.7643 46.3884L99.7557 46.2413L99.7924 46.4886L100.784 46.3415L100.747 46.0942L101.739 45.9471L101.775 46.1944L102.767 46.0473L102.73 45.8L103.721 45.6529L103.758 45.9002L104.749 45.7532L104.713 45.5059L105.704 45.3588L105.741 45.6061L106.732 45.459L106.696 45.2117L107.687 45.0646L107.724 45.3119L108.715 45.1648L108.678 44.9175L109.67 44.7705L109.707 45.0178L110.202 44.9442C110.308 44.9287 110.414 44.9237 110.52 44.9289L110.532 44.6793C110.778 44.6915 111.018 44.752 111.24 44.8571L111.134 45.0831C111.229 45.1282 111.32 45.1828 111.406 45.2466L111.555 45.0461L111.406 45.2466C111.492 45.3104 111.571 45.382 111.642 45.4601L111.827 45.2922C111.992 45.4742 112.12 45.6871 112.203 45.9184L111.968 46.0028C112.003 46.1021 112.029 46.2053 112.045 46.3112L112.119 46.8068L112.366 46.7701L112.513 47.7619L112.266 47.7986L112.413 48.7904L112.66 48.7537L112.807 49.7455L112.56 49.7822L112.707 50.774L112.955 50.7373L113.102 51.7291L112.854 51.7658L113.002 52.7576L113.249 52.7209L113.396 53.7127L113.149 53.7494L113.296 54.7412L113.543 54.7045L113.69 55.6963L113.443 55.733L113.59 56.7248L113.837 56.6881L113.985 57.6799L113.737 57.7166L113.884 58.7084L114.132 58.6717L114.279 59.6635L114.032 59.7002L114.179 60.6919L114.426 60.6553L114.573 61.6471L114.326 61.6837L114.473 62.6755L114.72 62.6388L114.867 63.6306L114.62 63.6673L114.767 64.6591L115.015 64.6224L115.162 65.6142L114.914 65.6509L115.061 66.6427L115.309 66.606L115.456 67.5978L115.209 67.6345L115.356 68.6263L115.603 68.5896L115.75 69.5814L115.503 69.6181L115.65 70.6099L115.897 70.5732L116.044 71.565L115.797 71.6017L115.944 72.5935L116.192 72.5568L116.339 73.5486L116.091 73.5853L116.239 74.5771L116.486 74.5404L116.633 75.5322L116.386 75.5689L116.533 76.5607L116.78 76.524L116.927 77.5158L116.68 77.5524L116.827 78.5442L117.074 78.5076L117.222 79.4993L116.974 79.536L117.121 80.5278L117.369 80.4911L117.516 81.4829L117.269 81.5196L117.416 82.5114L117.663 82.4747L117.81 83.4665L117.563 83.5032L117.71 84.495L117.957 84.4583L118.104 85.4501L117.857 85.4868L118.004 86.4786L118.252 86.4419L118.399 87.4337L118.151 87.4704L118.299 88.4622L118.546 88.4255L118.693 89.4173L118.446 89.454L118.593 90.4458L118.84 90.4091L118.987 91.4009L118.74 91.4375L118.887 92.4293L119.134 92.3926L119.282 93.3844L119.034 93.4211L119.181 94.4129L119.429 94.3762L119.576 95.368L119.328 95.4047L119.476 96.3965L119.723 96.3598L119.87 97.3516L119.623 97.3883L119.77 98.3801L120.017 98.3434L120.164 99.3352L119.917 99.3719L120.064 100.364L120.311 100.327L120.459 101.319L120.211 101.355L120.358 102.347L120.606 102.311L120.753 103.302L120.506 103.339L120.653 104.331L120.9 104.294L121.047 105.286L120.8 105.323L120.947 106.314L121.194 106.278L121.341 107.27L121.094 107.306L121.241 108.298L121.489 108.261L121.636 109.253L121.388 109.29L121.536 110.282L121.783 110.245L121.93 111.237L121.683 111.273L121.83 112.265L122.077 112.229L122.224 113.22L121.977 113.257L122.124 114.249L122.371 114.212L122.519 115.204L122.271 115.241L122.418 116.232L122.666 116.196L122.813 117.187L122.566 117.224L122.713 118.216L122.96 118.179L123.107 119.171L122.86 119.208L123.007 120.2L123.254 120.163L123.401 121.155L123.154 121.191L123.301 122.183L123.549 122.146L123.696 123.138L123.448 123.175L123.595 124.167L123.843 124.13L123.99 125.122L123.743 125.158L123.89 126.15L124.137 126.114L124.284 127.105L124.037 127.142L124.184 128.134L124.431 128.097L124.578 129.089L124.331 129.126L124.478 130.117L124.726 130.081L124.873 131.073L124.625 131.109L124.773 132.101L125.02 132.064L125.167 133.056L124.92 133.093L125.067 134.085L125.314 134.048L125.461 135.04L125.214 135.076L125.361 136.068L125.608 136.032L125.756 137.023L125.508 137.06L125.655 138.052L125.903 138.015L126.05 139.007L125.803 139.044L125.95 140.035L126.197 139.999L126.344 140.99L126.097 141.027L126.244 142.019L126.491 141.982L126.638 142.974L126.391 143.011L126.538 144.003L126.786 143.966L126.933 144.958L126.685 144.994L126.833 145.986L127.08 145.949L127.227 146.941L126.98 146.978L127.127 147.97L127.374 147.933L127.521 148.925L127.274 148.962L127.421 149.953L127.668 149.917L127.816 150.908L127.568 150.945L127.715 151.937L127.963 151.9L128.11 152.892L127.862 152.929L128.01 153.92L128.257 153.884L128.404 154.876L128.157 154.912L128.304 155.904L128.551 155.867L128.698 156.859L128.451 156.896L128.598 157.888L128.845 157.851L128.993 158.843L128.745 158.879L128.892 159.871L129.14 159.835L129.287 160.826L129.04 160.863L129.113 161.359C129.129 161.465 129.134 161.571 129.128 161.676L129.378 161.689C129.366 161.934 129.305 162.175 129.2 162.397L128.974 162.29C128.929 162.386 128.875 162.477 128.811 162.563C128.747 162.649 128.675 162.728 128.597 162.799L128.765 162.984C128.583 163.149 128.37 163.277 128.139 163.36L128.055 163.124C127.955 163.16 127.852 163.186 127.746 163.202L127.251 163.275L127.287 163.523L126.296 163.67L126.259 163.423L125.268 163.57L125.305 163.817L124.313 163.964L124.276 163.717L123.285 163.864L123.322 164.111L122.33 164.258L122.294 164.011L121.302 164.158L121.339 164.405L120.348 164.552L120.311 164.305L119.319 164.452L119.356 164.699L118.365 164.847L118.328 164.599L117.337 164.746L117.373 164.994L116.382 165.141L116.345 164.893L115.354 165.04L115.39 165.288L114.399 165.435L114.362 165.188L113.371 165.335L113.408 165.582L112.416 165.729L112.379 165.482L111.388 165.629L111.425 165.876L110.433 166.023L110.397 165.776L109.405 165.923L109.442 166.17L108.45 166.317L108.414 166.07L107.422 166.217L107.459 166.464L106.468 166.612L106.431 166.364L105.44 166.511L105.476 166.759L104.485 166.906L104.448 166.658L103.457 166.805L103.493 167.053L102.502 167.2L102.465 166.953L101.474 167.1L101.511 167.347L100.519 167.494L100.482 167.247L99.491 167.394L99.5277 167.641L98.5363 167.788L98.4996 167.541L97.5082 167.688L97.5449 167.935L96.5535 168.082L96.5168 167.835L95.5253 167.982L95.562 168.229L94.5706 168.376L94.5339 168.129L93.5425 168.276L93.5792 168.524L92.5878 168.671L92.5511 168.423L91.5597 168.57L91.5964 168.818L90.6049 168.965L90.5683 168.718L89.5768 168.865L89.6135 169.112L88.6221 169.259L88.5854 169.012L87.594 169.159L87.6307 169.406L86.6393 169.553L86.6026 169.306L85.6112 169.453L85.6479 169.7L84.6564 169.847L84.6197 169.6L83.6283 169.747L83.665 169.994L82.6736 170.141L82.6369 169.894L81.6455 170.041L81.6822 170.289L80.6908 170.436L80.6541 170.188L79.6626 170.335L79.6993 170.583L78.7079 170.73L78.6712 170.483L77.6798 170.63L77.7165 170.877L76.7251 171.024L76.6884 170.777L75.697 170.924L75.7337 171.171L74.7422 171.318L74.7056 171.071L73.7141 171.218L73.7508 171.465L72.7594 171.612L72.7227 171.365L71.7313 171.512L71.768 171.759L70.7766 171.906L70.7399 171.659L69.7485 171.806L69.7851 172.054L68.7937 172.201L68.757 171.953L67.7656 172.1L67.8023 172.348L66.8109 172.495L66.7742 172.248L65.7828 172.395L65.8195 172.642L64.8281 172.789L64.7914 172.542L63.7999 172.689L63.8366 172.936L62.8452 173.083L62.8085 172.836L61.8171 172.983L61.8538 173.23L60.8624 173.377L60.8257 173.13L59.8343 173.277L59.871 173.524L58.8796 173.671L58.8429 173.424L57.8515 173.571L57.8881 173.819L56.8967 173.966L56.86 173.718L55.8686 173.865L55.9053 174.113L54.9139 174.26L54.8772 174.013L53.8858 174.16L53.9225 174.407L52.9311 174.554L52.8944 174.307L51.903 174.454L51.9397 174.701L50.9482 174.848L50.9116 174.601L49.9201 174.748L49.9568 174.995L48.9654 175.142L48.9287 174.895L48.4333 174.968C48.3274 174.984 48.221 174.989 48.1156 174.984L48.1032 175.233C47.8577 175.221 47.6169 175.161 47.3948 175.056L47.5017 174.83C47.4064 174.785 47.315 174.73 47.229 174.666C47.143 174.602 47.0642 174.531 46.9934 174.453L46.8082 174.621C46.6431 174.439 46.5153 174.226 46.4323 173.994L46.6676 173.91C46.632 173.811 46.6059 173.708 46.5901 173.602L46.5165 173.106Z" fill="white" stroke="black" stroke-width="0.5" stroke-dasharray="1 1"/>
    <path d="M79.3796 116.514C65.8198 120.78 57.6524 129.328 57.0491 140.057C57.039 140.044 57.0289 140.031 57.0187 140.017C52.0096 133.507 49.5246 128.642 48.9369 125.049C48.6441 123.259 48.8243 121.796 49.3866 120.602C49.9487 119.408 50.9036 118.46 52.2006 117.718C54.8065 116.228 58.7576 115.59 63.519 115.474C68.2224 115.36 73.6773 115.755 79.331 116.309L79.3796 116.514ZM56.4662 146.761C56.8744 144.99 57.2567 143.227 57.4419 141.503C59.0886 144.129 60.0023 147.269 60.9776 150.622C61.1816 151.323 61.3883 152.033 61.6049 152.75C62.9636 157.247 64.7071 161.952 68.669 166.035L59.1025 166.035C55.0975 162.065 54.585 157.76 55.1344 153.387C55.3784 151.445 55.831 149.497 56.2817 147.558C56.3434 147.292 56.4051 147.027 56.4662 146.761Z" fill="white" stroke="black" stroke-width="0.5"/>
    <path d="M91.2852 110.233C91.3182 110.216 91.3512 110.199 91.3841 110.182C90.9959 117.705 86.9872 124.187 79.7423 128.948L79.7032 128.854C83.3267 126.422 84.5984 122.58 85.7666 118.988L85.79 118.916C86.9792 115.259 88.0703 111.903 91.2852 110.233ZM75.5045 80.9805C75.5973 81.0588 75.6897 81.1372 75.7818 81.2157C75.7091 81.1742 75.6375 81.1324 75.5671 81.0902C74.6396 80.5339 73.7047 79.9697 72.7619 79.4008C61.6198 72.6767 49.3696 65.284 35.0809 62.4303L35.0861 62.3212C50.5478 65.4025 64.892 72.0259 75.5045 80.9805L75.6657 80.7894L75.5045 80.9805ZM105.521 101.304C102.296 103.577 97.843 106.23 91.9123 109.342C92.0474 100.497 87.3033 91.2537 78.4806 82.9601C79.5548 83.3417 80.7321 83.684 81.9811 83.9971C84.6289 84.6609 87.6169 85.1977 90.6582 85.6977C91.6859 85.8667 92.7192 86.0314 93.7475 86.1953C98.8197 87.0039 103.771 87.7932 107.338 88.9781C109.488 89.6924 111.081 90.5347 111.903 91.5686C112.309 92.0783 112.525 92.6317 112.532 93.2449C112.54 93.8621 112.336 94.5625 111.863 95.3618C110.912 96.9674 108.905 98.919 105.521 101.304Z" fill="#F0F0F0" stroke="black" stroke-width="0.5"/>
    <path d="M87.9113 82.4785C87.8086 82.4773 87.7058 82.4749 87.603 82.471C87.6402 82.4246 87.6765 82.3773 87.7118 82.3292C88.6992 82.3692 89.6888 82.2566 90.6453 81.9939L90.6486 81.9929C91.8263 81.6519 92.9589 80.9761 93.5707 79.8238C94.0985 78.8298 94.2357 77.5497 93.551 76.5367C93.5409 76.5195 93.5375 76.4991 93.5416 76.4794C93.5459 76.459 93.5579 76.4409 93.5752 76.4292C93.5925 76.4174 93.6137 76.4128 93.6343 76.4164L93.6768 76.1702L93.6343 76.4164C93.6539 76.4198 93.6715 76.4303 93.6839 76.4458C94.2657 77.3067 94.3012 78.396 93.9404 79.387C93.5056 80.5816 92.6094 81.3587 91.5108 81.8375C90.4078 82.3181 89.1108 82.4926 87.9113 82.4785ZM87.1059 82.2855C87.0635 82.334 87.0198 82.3813 86.9749 82.4277C86.908 82.4208 86.8413 82.413 86.7748 82.4044C86.8222 82.3587 86.8684 82.3117 86.9134 82.2636C86.9775 82.2715 87.0417 82.2789 87.1059 82.2855ZM87.79 81.1197C87.7047 81.3664 87.5924 81.5981 87.4571 81.8144C87.3979 81.8102 87.3388 81.8054 87.2797 81.8001C87.4273 81.5769 87.5502 81.3336 87.6425 81.0699C88.0003 80.0479 87.8859 78.6733 86.9166 77.924L86.9166 77.9239L86.911 77.9198C86.5756 77.6751 86.1827 77.521 85.7704 77.4722C85.3581 77.4235 84.9401 77.4818 84.5569 77.6416L84.5569 77.6416L84.5539 77.6429C83.54 78.0813 83.3049 79.2136 83.6191 80.1256C84.0371 81.3388 85.1898 81.9224 86.2994 82.1621C86.248 82.207 86.1951 82.2505 86.141 82.2926C85.4888 82.1435 84.8786 81.8873 84.3671 81.463C83.5143 80.7557 83.0761 79.5537 83.4712 78.5291C83.7613 77.7768 84.4586 77.3754 85.2406 77.3137C86.0275 77.2516 86.8522 77.5397 87.3455 78.1124C88.039 78.9176 88.1418 80.1021 87.79 81.1197ZM62.5204 101C62.2742 101.076 62.0348 101.169 61.8038 101.278C61.7655 101.243 61.7273 101.209 61.6892 101.174C62.1851 100.933 62.7146 100.757 63.2489 100.652C65.437 100.223 67.819 100.844 69.6164 102.158C71.6562 103.65 72.9924 105.96 73.8542 108.337C74.6604 110.56 75.0571 112.89 75.4571 115.238C75.541 115.731 75.6251 116.225 75.7131 116.718C76.2086 119.497 76.88 122.28 78.2853 124.792L78.2856 124.793C79.4559 126.872 80.9821 128.731 82.7945 130.283C86.4107 133.393 91.1026 135.296 95.9053 135.295C95.9406 135.295 95.9569 135.307 95.9676 135.318C95.9821 135.334 95.9947 135.361 95.9969 135.392C95.9991 135.425 95.9897 135.442 95.9862 135.447C95.9851 135.448 95.9843 135.449 95.9822 135.45C95.98 135.451 95.9708 135.455 95.9504 135.455L95.9502 135.455C94.8779 135.455 93.8074 135.367 92.75 135.189C88.3662 134.413 84.3424 132.265 81.2596 129.053L81.2589 129.052C79.7184 127.46 78.4517 125.625 77.5102 123.62C76.3501 121.131 75.8398 118.41 75.3733 115.683C75.3524 115.561 75.3316 115.439 75.3108 115.317C74.8778 112.778 74.4376 110.196 73.4627 107.761C72.5662 105.522 71.1523 103.261 69.0149 101.942C67.1304 100.779 64.6828 100.302 62.5204 101ZM86.2563 82.8277C86.3293 82.8418 86.4024 82.8546 86.4757 82.8664C86.147 83.1128 85.7801 83.3168 85.3916 83.4756C84.1415 83.9868 82.7477 83.9971 81.3919 83.7894C80.2238 83.6105 79.0773 83.3075 77.9205 83.0017C77.5682 82.9086 77.2149 82.8153 76.8598 82.7251C73.9089 81.9756 70.8698 81.2526 67.7691 81.2705C65.3918 81.2843 62.8226 81.8591 60.6834 83.0666C58.5414 84.2757 56.8204 86.1264 56.1768 88.6882C55.4995 91.3844 56.125 94.2757 57.4027 96.6645C58.2926 98.3282 59.5003 99.7761 60.8473 101.071C60.802 101.099 60.7572 101.128 60.7127 101.158C60.5159 100.968 60.3218 100.775 60.1303 100.58C58.338 98.7214 56.8804 96.5519 56.1865 94.0696C55.527 91.7104 55.5561 89.1428 56.6504 86.9466C58.6808 82.8719 63.556 81.0878 67.9436 81.1111C70.8144 81.1264 73.6384 81.7492 76.4391 82.4534C76.8459 82.5557 77.2545 82.6627 77.6646 82.7702C78.6917 83.0394 79.7287 83.3112 80.7741 83.5171C82.1262 83.7834 83.5816 83.9093 84.9599 83.4616C85.413 83.3144 85.8574 83.1038 86.2563 82.8277ZM58.9393 104.615C59.0977 103.458 59.7618 102.5 60.6663 101.804C60.7041 101.839 60.7419 101.875 60.7799 101.91C60.4509 102.168 60.1514 102.465 59.8885 102.796L59.8885 102.796L59.8855 102.799C59.2945 103.574 58.8671 104.707 59.1467 105.739C59.4606 106.899 60.5666 107.496 61.623 107.525C62.6833 107.554 63.7938 107.012 64.0911 105.793L64.0914 105.792C64.2025 105.327 64.1728 104.839 64.006 104.39C63.8397 103.943 63.5447 103.555 63.1582 103.276C62.6176 102.856 62.0917 102.419 61.5813 101.963C61.6293 101.935 61.6778 101.906 61.7268 101.879C62.1844 102.282 62.6528 102.671 63.1258 103.046L63.1255 103.046L63.1364 103.054C63.521 103.327 63.8385 103.684 64.065 104.098C64.339 104.657 64.3959 105.298 64.2245 105.896C64.0534 106.494 63.667 107.007 63.14 107.337C62.6392 107.602 62.075 107.724 61.5092 107.69C60.9413 107.655 60.394 107.464 59.9281 107.137C59.1306 106.562 58.8044 105.599 58.9393 104.615ZM61.2236 101.425C61.2608 101.46 61.298 101.494 61.3353 101.528C61.2886 101.556 61.2422 101.585 61.1963 101.614C61.1591 101.58 61.122 101.545 61.085 101.511C61.1308 101.482 61.177 101.453 61.2236 101.425Z" stroke="black" stroke-width="0.5"/>
    <path d="M55.6494 105.567L55.6494 105.566C55.5942 104.766 55.6972 103.962 55.9526 103.202C56.2079 102.441 56.6107 101.738 57.1378 101.133C57.6649 100.528 58.3061 100.033 59.0246 99.6759C59.7431 99.3187 60.525 99.1067 61.3255 99.0518C62.126 98.9969 62.9295 99.1003 63.69 99.356C64.4506 99.6117 65.1533 100.015 65.758 100.542C66.3628 101.07 66.8577 101.711 67.2145 102.43C67.5713 103.148 67.783 103.93 67.8375 104.731L67.8375 104.731C67.8837 105.404 67.4658 106.161 66.5607 106.966C65.6716 107.757 64.4051 108.509 62.9898 109.169C60.1533 110.492 56.855 111.386 55.1138 111.505C54.6805 111.535 54.4073 111.512 54.2434 111.467C54.165 111.446 54.1259 111.424 54.1092 111.412C54.1012 111.406 54.0979 111.402 54.097 111.401C54.0962 111.4 54.0958 111.4 54.0952 111.399C54.0921 111.392 54.0675 111.331 54.1047 111.146C54.1406 110.968 54.2201 110.741 54.3395 110.453C54.4096 110.283 54.4924 110.097 54.5818 109.895C55.0732 108.789 55.7637 107.234 55.6494 105.567Z" fill="white" stroke="black"/>
    <path d="M72.749 168.482C64.3118 160.215 65.5328 149.17 60.2991 142.367C40.2402 116.295 60.1363 116.02 83.0116 118.275L83.1552 118.88C69.4392 123.129 61.2791 131.723 60.7674 142.459C60.3696 150.802 54.1881 160.359 62.4785 168.482L72.749 168.482Z" fill="#F0F0F0"/>
    <path d="M86.3642 84.2223C85.5312 84.2794 84.6951 84.1719 83.9036 83.9058C83.1121 83.6398 82.3807 83.2205 81.7513 82.6718C81.1219 82.1232 80.6067 81.4559 80.2351 80.7081C79.8636 79.9603 79.643 79.1467 79.5859 78.3137C79.5174 77.3149 78.9524 76.4931 78.2479 75.8294C77.543 75.1653 76.673 74.6355 75.9444 74.2225C75.783 74.131 75.6309 74.0466 75.4888 73.9676C75.3038 73.8649 75.1356 73.7715 74.985 73.6837C74.8025 73.5774 74.669 73.4921 74.5805 73.4249C74.6161 73.4164 74.6586 73.4078 74.7088 73.3993C74.8426 73.3767 75.0177 73.3575 75.2409 73.3422C77.0381 73.219 81.28 73.3903 85.1025 74.0472C87.0142 74.3757 88.8038 74.8229 90.125 75.4071C90.7858 75.6993 91.3162 76.0201 91.6854 76.3671C92.053 76.7126 92.2472 77.0705 92.2728 77.4439C92.3299 78.277 92.2224 79.1131 91.9564 79.9046C91.6903 80.696 91.271 81.4274 90.7224 82.0568C90.1737 82.6862 89.5064 83.2014 88.7587 83.573C88.0109 83.9445 87.1973 84.1652 86.3642 84.2223ZM74.4664 73.3184C74.4666 73.3184 74.4674 73.3197 74.4686 73.322C74.4669 73.3196 74.4663 73.3184 74.4664 73.3184ZM74.4367 73.4742C74.4351 73.4755 74.4341 73.4761 74.434 73.4761C74.4339 73.476 74.4348 73.4754 74.4367 73.4742Z" fill="#C4C4C4" stroke="black" stroke-width="0.5"/>
    <path d="M86.1762 87.5576C85.3104 87.617 84.4414 87.5052 83.6188 87.2287C82.7962 86.9523 82.0361 86.5165 81.382 85.9462C80.7278 85.376 80.1923 84.6825 79.8062 83.9053C79.42 83.1281 79.1907 82.2825 79.1314 81.4167C78.8817 77.7756 71.3776 76.4284 75.0187 76.1788C78.6599 75.9291 92.0675 76.8716 92.3172 80.5128C92.3765 81.3786 92.2648 82.2475 91.9883 83.0702C91.7118 83.8928 91.276 84.6528 90.7057 85.307C90.1355 85.9612 89.442 86.4966 88.6648 86.8828C87.8877 87.269 87.042 87.4983 86.1762 87.5576Z" fill="black"/>
    <path d="M77.7472 152.249L77.7464 152.248C77.3656 152.024 76.9939 151.785 76.6313 151.531L76.6302 151.53C75.4436 150.708 74.3605 149.745 73.4046 148.663L73.4046 148.663L73.4027 148.661C73.2385 148.48 73.0803 148.295 72.9259 148.107C72.3812 147.441 71.8841 146.737 71.4385 146C71.3599 145.867 71.2811 145.731 71.2018 145.594L71.201 145.593C71.2008 145.593 71.2006 145.592 71.2004 145.592C69.0795 141.857 68.3525 137.49 69.1487 133.269C69.9449 129.048 72.213 125.246 75.5494 122.54C78.8857 119.835 83.0739 118.4 87.3686 118.492C91.6633 118.585 95.786 120.198 99.003 123.044L99.0044 123.046C99.1748 123.194 99.3416 123.348 99.507 123.506L99.5076 123.507C101.157 125.076 102.495 126.944 103.451 129.01C103.455 129.019 103.459 129.027 103.463 129.035C104.888 132.137 105.412 135.576 104.977 138.961L104.974 138.985L104.974 138.989C104.965 139.056 104.956 139.12 104.946 139.184L104.946 139.184L104.945 139.19C104.648 141.294 104.355 142.79 103.951 143.866C103.55 144.933 103.047 145.568 102.338 145.977C101.616 146.393 100.651 146.591 99.2865 146.718C98.5128 146.79 97.6304 146.838 96.6079 146.894C95.8224 146.937 94.9543 146.984 93.9892 147.051C92.9757 147.12 91.6258 147.608 90.1528 148.247C89.2197 148.652 88.2178 149.126 87.2024 149.607C86.6096 149.888 86.0123 150.17 85.4212 150.443C83.8085 151.186 82.2351 151.857 80.8771 152.228C80.1985 152.414 79.5833 152.522 79.0502 152.53C78.5165 152.539 78.0811 152.447 77.7472 152.249ZM103.519 129.104C103.519 129.104 103.519 129.104 103.518 129.103L103.518 129.103L103.519 129.104L103.519 129.104Z" fill="white" stroke="black" stroke-width="0.5"/>
    <path d="M95.9224 149.3C92.0611 149.565 82.6312 156.301 79.5356 154.464C79.1491 154.236 78.7718 153.994 78.4038 153.736C77.2006 152.902 76.1025 151.926 75.1332 150.829C74.966 150.644 74.8052 150.456 74.6487 150.266C74.096 149.59 73.5918 148.876 73.1398 148.128C73.0598 147.993 72.9797 147.854 72.8996 147.716C70.749 143.93 70.0118 139.503 70.819 135.223C71.6263 130.944 73.9256 127.089 77.3079 124.346C80.6902 121.603 84.9361 120.149 89.29 120.242C93.6439 120.336 97.8234 121.971 101.085 124.857C101.259 125.009 101.428 125.165 101.596 125.326C103.271 126.919 104.628 128.815 105.598 130.913C105.598 130.916 105.6 130.915 105.6 130.918C107.049 134.065 107.583 137.556 107.141 140.993L107.141 140.997C107.131 141.073 107.121 141.149 107.108 141.225C105.922 149.646 104.746 148.695 95.9224 149.3Z" fill="black"/>
    <path d="M154.375 179.765L75.8289 154.532C75.1477 154.313 74.5815 153.832 74.2544 153.195C73.9274 152.558 73.8662 151.818 74.0844 151.136L108.961 42.5702C109.181 41.889 109.662 41.3228 110.299 40.9958C110.935 40.6687 111.676 40.6075 112.357 40.8257L190.903 66.0587C191.584 66.2784 192.151 66.7593 192.478 67.3959C192.805 68.0326 192.866 68.7729 192.648 69.4546L157.771 178.021C157.551 178.702 157.07 179.268 156.434 179.595C155.797 179.922 155.057 179.983 154.375 179.765Z" fill="white"/>
    <path d="M116.5 42.2383L160 56.2383L174 61.2383" stroke="black" stroke-width="0.5"/>
    <path d="M177.5 61.7383L190.5 66.7383" stroke="black" stroke-width="0.5"/>
    <path d="M128 162.738C128.316 163.038 129.421 163.698 131.316 163.938C133.684 164.238 135.105 162.738 133.211 162.738C131.316 162.738 131.316 164.238 133.211 165.738C135.105 167.238 137.237 165.738 139.368 167.538C141.5 169.338 137.237 171.138 136.763 168.438C136.289 165.738 136.053 162.138 139.368 164.838C142.684 167.538 143.395 168.738 145.289 169.338C147.184 169.938 149.553 171.138 150.974 172.638C152.111 173.838 154.132 174.538 155 174.738" stroke="black" stroke-width="0.5"/>
    <path d="M116.5 59.7383C118.333 59.7383 123 60.2383 127 62.2383C132 64.7383 136 69.2383 141.5 71.2383C147 73.2383 156.5 74.2383 160.5 75.7383C164.5 77.2383 161.5 78.2383 169.5 79.7383" stroke="black" stroke-width="0.5"/>
    <path d="M115 70.7383C116.245 70.7383 119.415 71.1633 122.132 72.8633C125.528 74.9883 128.245 78.8133 131.981 80.5133C135.717 82.2133 142.17 83.0633 144.887 84.3383C147.604 85.6133 145.566 86.4633 151 87.7383" stroke="black" stroke-width="0.5"/>
    <path d="M112 80.7383C113.833 80.7383 118.5 81.2883 122.5 83.4883C127.5 86.2383 131.5 91.1883 137 93.3883C142.5 95.5883 152 96.6883 156 98.3383C160 99.9883 157 101.088 165 102.738" stroke="black" stroke-width="0.5"/>
    <path d="M106 102.738C107.833 102.738 112.5 103.288 116.5 105.488C121.5 108.238 125.5 113.188 131 115.388C136.5 117.588 146 118.688 150 120.338C154 121.988 151 123.088 159 124.738" stroke="black" stroke-width="0.5"/>
    <path d="M104 114.738C105.833 114.738 110.5 115.288 114.5 117.488C119.5 120.238 123.5 125.188 129 127.388C134.5 129.588 144 130.688 148 132.338C152 133.988 149 135.088 157 136.738" stroke="black" stroke-width="0.5"/>
    <path d="M101 124.738C102.833 124.738 107.5 125.288 111.5 127.488C116.5 130.238 120.5 135.188 126 137.388C131.5 139.588 141 140.688 145 142.338C149 143.988 146 145.088 154 146.738" stroke="black" stroke-width="0.5"/>
    <path d="M192 72.2383L185 92.2383" stroke="black" stroke-width="0.5"/>
    <path d="M183 100.238L164.5 157.738" stroke="black" stroke-width="0.5"/>
    <path d="M163 162.238L158 177.738" stroke="black" stroke-width="0.5"/>
    <path d="M153.5 179.738L124 169.738" stroke="black" stroke-width="0.5"/>
    <path d="M117 166.738L76.5 152.738" stroke="black" stroke-width="0.5"/>
    <path d="M76 145.238L89.5 105.738" stroke="black" stroke-width="0.5"/>
    <path d="M91.5 98.7383L106 53.2383" stroke="black" stroke-width="0.5"/>
    <path d="M107 48.7383L110 42.7383" stroke="black" stroke-width="0.5"/>
</svg>
