<svg width="220" height="220" viewBox="0 0 220 220" fill="none" xmlns="http://www.w3.org/2000/svg">
    <circle cx="110" cy="110" r="110" fill="#B3B3B3"/>
    <path d="M136.748 166.054L52.6223 178.534C52.1669 178.601 51.7035 178.485 51.3337 178.21C50.964 177.936 50.7181 177.526 50.6499 177.071L32.5389 54.9922C32.4718 54.5366 32.5882 54.073 32.8624 53.7032C33.1365 53.3333 33.5461 53.0874 34.0013 53.0193L118.127 40.5388C118.582 40.4718 119.046 40.5882 119.416 40.8625C119.785 41.1369 120.031 41.5467 120.099 42.0023L138.21 164.081C138.277 164.536 138.161 165 137.887 165.37C137.613 165.74 137.203 165.986 136.748 166.054Z" fill="white" stroke="black" stroke-width="0.5"/>
    <path d="M52.5165 172.369L52.2692 172.405L52.1221 171.414L52.3694 171.377L52.2223 170.385L51.975 170.422L51.8278 169.43L52.0751 169.393L51.928 168.401L51.6807 168.438L51.5335 167.446L51.7808 167.41L51.6337 166.418L51.3864 166.455L51.2393 165.463L51.4866 165.426L51.3394 164.434L51.0921 164.471L50.945 163.479L51.1923 163.442L51.0451 162.451L50.7979 162.487L50.6507 161.496L50.898 161.459L50.7509 160.467L50.5036 160.504L50.3564 159.512L50.6037 159.475L50.4566 158.483L50.2093 158.52L50.0622 157.528L50.3095 157.492L50.1623 156.5L49.915 156.537L49.7679 155.545L50.0152 155.508L49.868 154.516L49.6207 154.553L49.4736 153.561L49.7209 153.525L49.5738 152.533L49.3265 152.569L49.1793 151.578L49.4266 151.541L49.2795 150.549L49.0322 150.586L48.8851 149.594L49.1324 149.557L48.9852 148.566L48.7379 148.602L48.5908 147.61L48.8381 147.574L48.6909 146.582L48.4436 146.619L48.2965 145.627L48.5438 145.59L48.3967 144.598L48.1494 144.635L48.0022 143.643L48.2495 143.607L48.1024 142.615L47.8551 142.651L47.708 141.66L47.9552 141.623L47.8081 140.631L47.5608 140.668L47.4137 139.676L47.661 139.639L47.5138 138.648L47.2665 138.684L47.1194 137.693L47.3667 137.656L47.2196 136.664L46.9723 136.701L46.8251 135.709L47.0724 135.672L46.9253 134.68L46.678 134.717L46.5308 133.725L46.7781 133.689L46.631 132.697L46.3837 132.734L46.2366 131.742L46.4839 131.705L46.3367 130.713L46.0894 130.75L45.9423 129.758L46.1896 129.721L46.0425 128.73L45.7952 128.766L45.648 127.775L45.8953 127.738L45.7482 126.746L45.5009 126.783L45.3537 125.791L45.601 125.754L45.4539 124.763L45.2066 124.799L45.0595 123.807L45.3068 123.771L45.1596 122.779L44.9123 122.816L44.7652 121.824L45.0125 121.787L44.8653 120.795L44.6181 120.832L44.4709 119.84L44.7182 119.804L44.5711 118.812L44.3238 118.848L44.1766 117.857L44.4239 117.82L44.2768 116.828L44.0295 116.865L43.8824 115.873L44.1297 115.836L43.9825 114.845L43.7352 114.881L43.5881 113.889L43.8354 113.853L43.6882 112.861L43.4409 112.898L43.2938 111.906L43.5411 111.869L43.394 110.877L43.1467 110.914L42.9995 109.922L43.2468 109.886L43.0997 108.894L42.8524 108.931L42.7053 107.939L42.9526 107.902L42.8054 106.91L42.5581 106.947L42.411 105.955L42.6583 105.918L42.5111 104.927L42.2638 104.963L42.1167 103.972L42.364 103.935L42.2169 102.943L41.9696 102.98L41.8224 101.988L42.0697 101.951L41.9226 100.959L41.6753 100.996L41.5282 100.004L41.7754 99.9677L41.6283 98.9759L41.381 99.0126L41.2339 98.0208L41.4812 97.9841L41.334 96.9923L41.0867 97.029L40.9396 96.0372L41.1869 96.0005L41.0398 95.0087L40.7925 95.0454L40.6453 94.0536L40.8926 94.017L40.7455 93.0252L40.4982 93.0618L40.3511 92.0701L40.5983 92.0334L40.4512 91.0416L40.2039 91.0783L40.0568 90.0865L40.3041 90.0498L40.1569 89.058L39.9096 89.0947L39.7625 88.1029L40.0098 88.0662L39.8627 87.0744L39.6154 87.1111L39.4682 86.1193L39.7155 86.0826L39.5684 85.0908L39.3211 85.1275L39.1739 84.1357L39.4212 84.099L39.2741 83.1072L39.0268 83.1439L38.8797 82.1521L39.127 82.1154L38.9798 81.1237L38.7325 81.1603L38.5854 80.1685L38.8327 80.1319L38.6856 79.1401L38.4383 79.1768L38.2911 78.185L38.5384 78.1483L38.3913 77.1565L38.144 77.1932L37.9968 76.2014L38.2441 76.1647L38.097 75.1729L37.8497 75.2096L37.7026 74.2178L37.9499 74.1811L37.8027 73.1893L37.5554 73.226L37.4083 72.2342L37.6556 72.1975L37.5084 71.2057L37.2612 71.2424L37.114 70.2506L37.3613 70.2139L37.2142 69.2221L36.9669 69.2588L36.8197 68.267L37.067 68.2303L36.9199 67.2386L36.6726 67.2752L36.5255 66.2834L36.7728 66.2468L36.6256 65.255L36.3783 65.2917L36.2312 64.2999L36.4785 64.2632L36.3313 63.2714L36.084 63.3081L35.9369 62.3163L36.1842 62.2796L36.0371 61.2878L35.7898 61.3245L35.6426 60.3327L35.8899 60.296L35.7428 59.3042L35.4955 59.3409L35.3484 58.3491L35.5957 58.3124L35.5221 57.8165C35.5065 57.7107 35.5015 57.6043 35.5068 57.499L35.2571 57.4866C35.2694 57.2411 35.3298 57.0003 35.435 56.7782L35.6609 56.8851C35.706 56.7898 35.7607 56.6984 35.8244 56.6124C35.8882 56.5264 35.9598 56.4476 36.038 56.3767L35.87 56.1916C36.0521 56.0265 36.2649 55.8987 36.4962 55.8157L36.5807 56.051C36.6799 56.0154 36.7831 55.9893 36.8889 55.9735L37.3845 55.9L37.3478 55.6527L38.3392 55.5056L38.3759 55.7529L39.3673 55.6058L39.3306 55.3585L40.3221 55.2114L40.3588 55.4587L41.3502 55.3116L41.3135 55.0643L42.3049 54.9173L42.3416 55.1645L43.333 55.0175L43.2963 54.7702L44.2877 54.6231L44.3244 54.8704L45.3158 54.7233L45.2792 54.476L46.2706 54.3289L46.3073 54.5762L47.2987 54.4291L47.262 54.1818L48.2534 54.0348L48.2901 54.2821L49.2815 54.135L49.2448 53.8877L50.2363 53.7406L50.2729 53.9879L51.2644 53.8408L51.2277 53.5935L52.2191 53.4464L52.2558 53.6937L53.2472 53.5466L53.2105 53.2993L54.2019 53.1523L54.2386 53.3996L55.23 53.2525L55.1933 53.0052L56.1848 52.8581L56.2215 53.1054L57.2129 52.9583L57.1762 52.711L58.1676 52.5639L58.2043 52.8112L59.1957 52.6641L59.159 52.4169L60.1504 52.2698L60.1871 52.5171L61.1785 52.37L61.1419 52.1227L62.1333 51.9756L62.17 52.2229L63.1614 52.0758L63.1247 51.8285L64.1161 51.6814L64.1528 51.9287L65.1442 51.7816L65.1075 51.5344L66.099 51.3873L66.1356 51.6346L67.1271 51.4875L67.0904 51.2402L68.0818 51.0931L68.1185 51.3404L69.1099 51.1933L69.0732 50.946L70.0646 50.7989L70.1013 51.0462L71.0927 50.8992L71.056 50.6519L72.0475 50.5048L72.0842 50.7521L73.0756 50.605L73.0389 50.3577L74.0303 50.2106L74.067 50.4579L75.0584 50.3108L75.0217 50.0635L76.0131 49.9164L76.0498 50.1637L77.0412 50.0167L77.0046 49.7694L77.996 49.6223L78.0327 49.8696L79.0241 49.7225L78.9874 49.4752L79.9788 49.3281L80.0155 49.5754L81.0069 49.4283L80.9702 49.181L81.9617 49.034L81.9983 49.2812L82.9898 49.1342L82.9531 48.8869L83.9445 48.7398L83.9812 48.9871L84.9726 48.84L84.9359 48.5927L85.9273 48.4456L85.964 48.6929L86.9554 48.5458L86.9187 48.2985L87.9102 48.1515L87.9469 48.3987L88.9383 48.2517L88.9016 48.0044L89.893 47.8573L89.9297 48.1046L90.9211 47.9575L90.8844 47.7102L91.8758 47.5631L91.9125 47.8104L92.9039 47.6633L92.8673 47.416L93.8587 47.269L93.8954 47.5163L94.8868 47.3692L94.8501 47.1219L95.8415 46.9748L95.8782 47.2221L96.8696 47.075L96.8329 46.8277L97.8244 46.6806L97.861 46.9279L98.8525 46.7808L98.8158 46.5335L99.8072 46.3865L99.8439 46.6338L100.835 46.4867L100.799 46.2394L101.79 46.0923L101.827 46.3396L102.818 46.1925L102.781 45.9452L103.773 45.7981L103.81 46.0454L104.801 45.8983L104.764 45.6511L105.756 45.504L105.792 45.7513L106.784 45.6042L106.747 45.3569L107.739 45.2098L107.775 45.4571L108.767 45.31L108.73 45.0627L109.721 44.9156L109.758 45.1629L110.749 45.0159L110.713 44.7686L111.704 44.6215L111.741 44.8688L112.732 44.7217L112.696 44.4744L113.687 44.3273L113.724 44.5746L114.715 44.4275L114.678 44.1802L115.67 44.0332L115.707 44.2804L116.202 44.2069C116.308 44.1913 116.414 44.1864 116.52 44.1916L116.532 43.9419C116.778 43.9542 117.018 44.0147 117.24 44.1198L117.134 44.3458C117.229 44.3909 117.32 44.4455 117.406 44.5093L117.555 44.3088L117.406 44.5093C117.492 44.5731 117.571 44.6447 117.642 44.7228L117.827 44.5549C117.992 44.7369 118.12 44.9497 118.203 45.1811L117.968 45.2655C118.003 45.3648 118.029 45.468 118.045 45.5739L118.119 46.0695L118.366 46.0328L118.513 47.0246L118.266 47.0613L118.413 48.0531L118.66 48.0164L118.807 49.0082L118.56 49.0449L118.707 50.0367L118.955 50L119.102 50.9918L118.854 51.0285L119.002 52.0203L119.249 51.9836L119.396 52.9754L119.149 53.0121L119.296 54.0039L119.543 53.9672L119.69 54.959L119.443 54.9957L119.59 55.9875L119.837 55.9508L119.985 56.9426L119.737 56.9793L119.884 57.9711L120.132 57.9344L120.279 58.9262L120.032 58.9628L120.179 59.9546L120.426 59.918L120.573 60.9097L120.326 60.9464L120.473 61.9382L120.72 61.9015L120.867 62.8933L120.62 62.93L120.767 63.9218L121.015 63.8851L121.162 64.8769L120.914 64.9136L121.061 65.9054L121.309 65.8687L121.456 66.8605L121.209 66.8972L121.356 67.889L121.603 67.8523L121.75 68.8441L121.503 68.8808L121.65 69.8726L121.897 69.8359L122.044 70.8277L121.797 70.8644L121.944 71.8562L122.192 71.8195L122.339 72.8113L122.091 72.848L122.239 73.8398L122.486 73.8031L122.633 74.7949L122.386 74.8316L122.533 75.8233L122.78 75.7867L122.927 76.7785L122.68 76.8151L122.827 77.8069L123.074 77.7702L123.222 78.762L122.974 78.7987L123.121 79.7905L123.369 79.7538L123.516 80.7456L123.269 80.7823L123.416 81.7741L123.663 81.7374L123.81 82.7292L123.563 82.7659L123.71 83.7577L123.957 83.721L124.104 84.7128L123.857 84.7495L124.004 85.7413L124.252 85.7046L124.399 86.6964L124.151 86.7331L124.299 87.7249L124.546 87.6882L124.693 88.68L124.446 88.7167L124.593 89.7084L124.84 89.6718L124.987 90.6636L124.74 90.7002L124.887 91.692L125.134 91.6553L125.282 92.6471L125.034 92.6838L125.181 93.6756L125.429 93.6389L125.576 94.6307L125.328 94.6674L125.476 95.6592L125.723 95.6225L125.87 96.6143L125.623 96.651L125.77 97.6428L126.017 97.6061L126.164 98.5979L125.917 98.6346L126.064 99.6264L126.311 99.5897L126.459 100.581L126.211 100.618L126.358 101.61L126.606 101.573L126.753 102.565L126.506 102.602L126.653 103.594L126.9 103.557L127.047 104.549L126.8 104.585L126.947 105.577L127.194 105.54L127.341 106.532L127.094 106.569L127.241 107.561L127.489 107.524L127.636 108.516L127.388 108.553L127.536 109.544L127.783 109.508L127.93 110.499L127.683 110.536L127.83 111.528L128.077 111.491L128.224 112.483L127.977 112.52L128.124 113.511L128.371 113.475L128.519 114.467L128.271 114.503L128.418 115.495L128.666 115.458L128.813 116.45L128.566 116.487L128.713 117.479L128.96 117.442L129.107 118.434L128.86 118.47L129.007 119.462L129.254 119.426L129.401 120.417L129.154 120.454L129.301 121.446L129.549 121.409L129.696 122.401L129.448 122.438L129.595 123.429L129.843 123.393L129.99 124.384L129.743 124.421L129.89 125.413L130.137 125.376L130.284 126.368L130.037 126.405L130.184 127.397L130.431 127.36L130.578 128.352L130.331 128.388L130.478 129.38L130.726 129.343L130.873 130.335L130.625 130.372L130.773 131.364L131.02 131.327L131.167 132.319L130.92 132.356L131.067 133.347L131.314 133.311L131.461 134.302L131.214 134.339L131.361 135.331L131.608 135.294L131.756 136.286L131.508 136.323L131.655 137.314L131.903 137.278L132.05 138.27L131.803 138.306L131.95 139.298L132.197 139.261L132.344 140.253L132.097 140.29L132.244 141.282L132.491 141.245L132.638 142.237L132.391 142.273L132.538 143.265L132.786 143.229L132.933 144.22L132.685 144.257L132.833 145.249L133.08 145.212L133.227 146.204L132.98 146.241L133.127 147.232L133.374 147.196L133.521 148.188L133.274 148.224L133.421 149.216L133.668 149.179L133.816 150.171L133.568 150.208L133.715 151.2L133.963 151.163L134.11 152.155L133.862 152.191L134.01 153.183L134.257 153.146L134.404 154.138L134.157 154.175L134.304 155.167L134.551 155.13L134.698 156.122L134.451 156.159L134.598 157.15L134.845 157.114L134.993 158.105L134.745 158.142L134.892 159.134L135.14 159.097L135.287 160.089L135.04 160.126L135.113 160.621C135.129 160.727 135.134 160.834 135.128 160.939L135.378 160.952C135.366 161.197 135.305 161.438 135.2 161.66L134.974 161.553C134.929 161.648 134.875 161.74 134.811 161.826C134.747 161.912 134.675 161.991 134.597 162.061L134.765 162.247C134.583 162.412 134.37 162.539 134.139 162.622L134.055 162.387C133.955 162.423 133.852 162.449 133.746 162.465L133.251 162.538L133.287 162.785L132.296 162.933L132.259 162.685L131.268 162.832L131.305 163.08L130.313 163.227L130.276 162.979L129.285 163.127L129.322 163.374L128.33 163.521L128.294 163.274L127.302 163.421L127.339 163.668L126.348 163.815L126.311 163.568L125.319 163.715L125.356 163.962L124.365 164.109L124.328 163.862L123.337 164.009L123.373 164.256L122.382 164.403L122.345 164.156L121.354 164.303L121.39 164.55L120.399 164.698L120.362 164.45L119.371 164.597L119.408 164.845L118.416 164.992L118.379 164.744L117.388 164.891L117.425 165.139L116.433 165.286L116.397 165.039L115.405 165.186L115.442 165.433L114.45 165.58L114.414 165.333L113.422 165.48L113.459 165.727L112.468 165.874L112.431 165.627L111.44 165.774L111.476 166.021L110.485 166.168L110.448 165.921L109.457 166.068L109.493 166.315L108.502 166.463L108.465 166.215L107.474 166.362L107.511 166.61L106.519 166.757L106.482 166.509L105.491 166.656L105.528 166.904L104.536 167.051L104.5 166.804L103.508 166.951L103.545 167.198L102.553 167.345L102.517 167.098L101.525 167.245L101.562 167.492L100.571 167.639L100.534 167.392L99.5425 167.539L99.5792 167.786L98.5878 167.933L98.5511 167.686L97.5597 167.833L97.5964 168.08L96.6049 168.228L96.5683 167.98L95.5768 168.127L95.6135 168.375L94.6221 168.522L94.5854 168.274L93.594 168.421L93.6307 168.669L92.6393 168.816L92.6026 168.569L91.6112 168.716L91.6479 168.963L90.6564 169.11L90.6197 168.863L89.6283 169.01L89.665 169.257L88.6736 169.404L88.6369 169.157L87.6455 169.304L87.6822 169.551L86.6908 169.698L86.6541 169.451L85.6626 169.598L85.6993 169.845L84.7079 169.993L84.6712 169.745L83.6798 169.892L83.7165 170.14L82.7251 170.287L82.6884 170.039L81.697 170.186L81.7337 170.434L80.7422 170.581L80.7056 170.334L79.7141 170.481L79.7508 170.728L78.7594 170.875L78.7227 170.628L77.7313 170.775L77.768 171.022L76.7766 171.169L76.7399 170.922L75.7485 171.069L75.7851 171.316L74.7937 171.463L74.757 171.216L73.7656 171.363L73.8023 171.61L72.8109 171.758L72.7742 171.51L71.7828 171.657L71.8195 171.905L70.8281 172.052L70.7914 171.804L69.7999 171.951L69.8366 172.199L68.8452 172.346L68.8085 172.099L67.8171 172.246L67.8538 172.493L66.8624 172.64L66.8257 172.393L65.8343 172.54L65.871 172.787L64.8796 172.934L64.8429 172.687L63.8515 172.834L63.8881 173.081L62.8967 173.228L62.86 172.981L61.8686 173.128L61.9053 173.375L60.9139 173.522L60.8772 173.275L59.8858 173.422L59.9225 173.67L58.9311 173.817L58.8944 173.569L57.903 173.716L57.9397 173.964L56.9482 174.111L56.9116 173.864L55.9201 174.011L55.9568 174.258L54.9654 174.405L54.9287 174.158L54.4333 174.231C54.3274 174.247 54.221 174.252 54.1156 174.246L54.1032 174.496C53.8577 174.484 53.6169 174.423 53.3948 174.318L53.5017 174.092C53.4064 174.047 53.315 173.993 53.229 173.929C53.143 173.865 53.0642 173.793 52.9934 173.715L52.8082 173.883C52.6431 173.701 52.5153 173.488 52.4323 173.257L52.6676 173.173C52.632 173.073 52.6059 172.97 52.5901 172.864L52.5165 172.369Z" fill="white" stroke="black" stroke-width="0.5" stroke-dasharray="1 1"/>
    <path d="M85.3796 115.777C71.8198 120.042 63.6524 128.59 63.0491 139.32C63.039 139.307 63.0289 139.293 63.0187 139.28C58.0096 132.77 55.5246 127.905 54.9369 124.312C54.6441 122.521 54.8243 121.058 55.3866 119.864C55.9487 118.671 56.9036 117.723 58.2006 116.981C60.8065 115.491 64.7576 114.853 69.519 114.737C74.2224 114.623 79.6773 115.017 85.331 115.572L85.3796 115.777ZM62.4662 146.024C62.8744 144.252 63.2567 142.489 63.4419 140.765C65.0886 143.391 66.0023 146.532 66.9776 149.885C67.1816 150.586 67.3883 151.296 67.6049 152.013C68.9636 156.509 70.7071 161.215 74.669 165.297L65.1025 165.297C61.0975 161.328 60.585 157.022 61.1344 152.65C61.3784 150.708 61.831 148.76 62.2817 146.821C62.3434 146.555 62.4051 146.289 62.4662 146.024Z" fill="white" stroke="black" stroke-width="0.5"/>
    <path d="M97.2852 109.496C97.3182 109.479 97.3512 109.461 97.3841 109.444C96.9959 116.968 92.9872 123.449 85.7423 128.211L85.7032 128.116C89.3267 125.685 90.5984 121.843 91.7666 118.251L91.79 118.179C92.9792 114.521 94.0703 111.166 97.2852 109.496ZM81.5045 80.2432C81.5973 80.3215 81.6897 80.3999 81.7818 80.4784C81.7091 80.4369 81.6375 80.3951 81.5671 80.3529C80.6396 79.7966 79.7047 79.2324 78.7619 78.6635C67.6198 71.9394 55.3696 64.5467 41.0809 61.693L41.0861 61.5838C56.5478 64.6652 70.892 71.2886 81.5045 80.2432L81.6657 80.0521L81.5045 80.2432ZM111.521 100.567C108.296 102.84 103.843 105.493 97.9123 108.604C98.0474 99.7594 93.3033 90.5164 84.4806 82.2228C85.5548 82.6044 86.7321 82.9467 87.9811 83.2598C90.6289 83.9236 93.6169 84.4604 96.6582 84.9604C97.6859 85.1294 98.7192 85.2941 99.7475 85.458C104.82 86.2666 109.771 87.0559 113.338 88.2408C115.488 88.9551 117.081 89.7974 117.903 90.8313C118.309 91.341 118.525 91.8944 118.532 92.5076C118.54 93.1248 118.336 93.8252 117.863 94.6245C116.912 96.2301 114.905 98.1817 111.521 100.567Z" fill="#F0F0F0" stroke="black" stroke-width="0.5"/>
    <path d="M93.9113 81.7412C93.8086 81.74 93.7058 81.7376 93.603 81.7337C93.6402 81.6873 93.6765 81.64 93.7118 81.5919C94.6992 81.6319 95.6888 81.5193 96.6453 81.2566L96.6486 81.2556C97.8263 80.9146 98.9589 80.2388 99.5707 79.0865C100.098 78.0925 100.236 76.8124 99.551 75.7994C99.5409 75.7822 99.5375 75.7618 99.5416 75.7421C99.5459 75.7217 99.5579 75.7036 99.5752 75.6919C99.5925 75.6801 99.6137 75.6755 99.6343 75.6791L99.6768 75.4329L99.6343 75.6791C99.6539 75.6825 99.6715 75.693 99.6839 75.7085C100.266 76.5694 100.301 77.6587 99.9404 78.6497C99.5056 79.8443 98.6094 80.6214 97.5108 81.1002C96.4078 81.5808 95.1108 81.7553 93.9113 81.7412ZM93.1059 81.5482C93.0635 81.5966 93.0198 81.644 92.9749 81.6904C92.908 81.6835 92.8413 81.6757 92.7748 81.6671C92.8222 81.6214 92.8684 81.5744 92.9134 81.5263C92.9775 81.5342 93.0417 81.5416 93.1059 81.5482ZM93.79 80.3824C93.7047 80.6291 93.5924 80.8608 93.4571 81.0771C93.3979 81.0729 93.3388 81.0681 93.2797 81.0628C93.4273 80.8396 93.5502 80.5963 93.6425 80.3326C94.0003 79.3106 93.8859 77.936 92.9166 77.1867L92.9166 77.1866L92.911 77.1825C92.5756 76.9378 92.1827 76.7836 91.7704 76.7349C91.3581 76.6862 90.9401 76.7445 90.5569 76.9043L90.5569 76.9043L90.5539 76.9056C89.54 77.3439 89.3049 78.4763 89.6191 79.3883C90.0371 80.6014 91.1898 81.1851 92.2994 81.4248C92.248 81.4697 92.1951 81.5132 92.141 81.5553C91.4888 81.4062 90.8786 81.1499 90.3671 80.7257C89.5143 80.0184 89.0761 78.8164 89.4712 77.7918C89.7613 77.0395 90.4586 76.6381 91.2406 76.5764C92.0275 76.5143 92.8522 76.8024 93.3455 77.3751C94.039 78.1803 94.1418 79.3648 93.79 80.3824ZM68.5204 100.263C68.2742 100.339 68.0348 100.432 67.8038 100.541C67.7655 100.506 67.7273 100.471 67.6892 100.437C68.1851 100.196 68.7146 100.019 69.2489 99.9147C71.437 99.4857 73.819 100.106 75.6164 101.421C77.6562 102.913 78.9924 105.222 79.8542 107.599C80.6604 109.823 81.0571 112.152 81.4571 114.501C81.541 114.994 81.6251 115.487 81.7131 115.981C82.2086 118.76 82.88 121.542 84.2853 124.055L84.2856 124.056C85.4559 126.135 86.9821 127.993 88.7945 129.545C92.4107 132.656 97.1026 134.558 101.905 134.558C101.941 134.558 101.957 134.569 101.968 134.581C101.982 134.597 101.995 134.623 101.997 134.655C101.999 134.687 101.99 134.705 101.986 134.709C101.985 134.711 101.984 134.711 101.982 134.712C101.98 134.713 101.971 134.717 101.95 134.717L101.95 134.717C100.878 134.718 99.8074 134.629 98.75 134.452C94.3662 133.676 90.3424 131.527 87.2596 128.316L87.2589 128.315C85.7184 126.723 84.4517 124.888 83.5102 122.883C82.3501 120.394 81.8398 117.673 81.3733 114.945C81.3524 114.824 81.3316 114.702 81.3108 114.58C80.8778 112.04 80.4376 109.459 79.4627 107.024C78.5662 104.785 77.1523 102.523 75.0149 101.205C73.1304 100.042 70.6828 99.5646 68.5204 100.263ZM92.2563 82.0904C92.3293 82.1045 92.4024 82.1173 92.4757 82.1291C92.147 82.3755 91.7801 82.5795 91.3916 82.7383C90.1415 83.2495 88.7477 83.2598 87.3919 83.0521C86.2238 82.8731 85.0773 82.5702 83.9205 82.2644C83.5682 82.1713 83.2149 82.0779 82.8598 81.9878C79.9089 81.2383 76.8698 80.5153 73.7691 80.5332C71.3918 80.547 68.8226 81.1217 66.6834 82.3293C64.5414 83.5384 62.8204 85.3891 62.1768 87.9509C61.4995 90.6471 62.125 93.5384 63.4027 95.9272C64.2926 97.5909 65.5003 99.0388 66.8473 100.333C66.802 100.362 66.7572 100.391 66.7127 100.42C66.5159 100.23 66.3218 100.038 66.1303 99.8426C64.338 97.9841 62.8804 95.8146 62.1865 93.3323C61.527 90.9731 61.5561 88.4055 62.6504 86.2093C64.6808 82.1346 69.556 80.3505 73.9436 80.3738C76.8144 80.3891 79.6384 81.0119 82.4391 81.7161C82.8459 81.8183 83.2545 81.9254 83.6646 82.0329C84.6917 82.3021 85.7287 82.5739 86.7741 82.7798C88.1262 83.0461 89.5816 83.172 90.9599 82.7243C91.413 82.5771 91.8574 82.3665 92.2563 82.0904ZM64.9393 103.877C65.0977 102.721 65.7618 101.762 66.6663 101.066C66.7041 101.102 66.7419 101.137 66.7799 101.173C66.4509 101.431 66.1514 101.727 65.8885 102.058L65.8885 102.058L65.8855 102.062C65.2945 102.837 64.8671 103.969 65.1467 105.002C65.4606 106.162 66.5666 106.758 67.623 106.787C68.6833 106.817 69.7938 106.275 70.0911 105.056L70.0914 105.055C70.2025 104.589 70.1728 104.101 70.006 103.653C69.8397 103.206 69.5447 102.818 69.1582 102.539C68.6176 102.119 68.0917 101.681 67.5813 101.226C67.6293 101.197 67.6778 101.169 67.7268 101.142C68.1844 101.545 68.6528 101.933 69.1258 102.309L69.1255 102.309L69.1364 102.317C69.521 102.59 69.8385 102.947 70.065 103.36C70.339 103.92 70.3959 104.56 70.2245 105.159C70.0534 105.757 69.667 106.27 69.14 106.599C68.6392 106.865 68.075 106.987 67.5092 106.952C66.9413 106.918 66.394 106.726 65.9281 106.4C65.1306 105.824 64.8044 104.862 64.9393 103.877ZM67.2236 100.688C67.2608 100.722 67.298 100.757 67.3353 100.791C67.2886 100.819 67.2422 100.847 67.1963 100.877C67.1591 100.842 67.122 100.808 67.085 100.774C67.1308 100.744 67.177 100.716 67.2236 100.688Z" stroke="black" stroke-width="0.5"/>
    <path d="M61.148 111.267C57.5068 111.516 61.4002 108.505 61.1506 104.863C61.0908 103.997 61.2023 103.128 61.4786 102.305C61.7549 101.482 62.1906 100.722 62.7608 100.067C63.3311 99.4129 64.0247 98.8772 64.8021 98.4908C65.5794 98.1045 66.4253 97.875 67.2913 97.8157C68.1573 97.7563 69.0266 97.8681 69.8494 98.1448C70.6722 98.4215 71.4324 98.8575 72.0867 99.4281C72.7409 99.9986 73.2763 100.692 73.6623 101.47C74.0483 102.247 74.2774 103.093 74.3364 103.96C74.586 107.601 64.7891 111.017 61.148 111.267Z" fill="black"/>
    <path d="M78.749 167.744C70.3118 159.477 71.5328 148.432 66.2991 141.63C46.2402 115.558 66.1363 115.283 89.0116 117.538L89.1552 118.143C75.4392 122.392 67.2791 130.986 66.7674 141.722C66.3696 150.065 60.1881 159.621 68.4785 167.744L78.749 167.744Z" fill="#F0F0F0"/>
    <path d="M92.3642 83.485C91.5312 83.5421 90.6951 83.4346 89.9036 83.1685C89.1121 82.9025 88.3807 82.4832 87.7513 81.9345C87.1219 81.3859 86.6067 80.7186 86.2351 79.9708C85.8636 79.223 85.643 78.4094 85.5859 77.5764C85.5174 76.5776 84.9524 75.7558 84.2479 75.0921C83.543 74.4279 82.673 73.8982 81.9444 73.4852C81.783 73.3937 81.6309 73.3093 81.4888 73.2303C81.3038 73.1276 81.1356 73.0342 80.985 72.9464C80.8025 72.8401 80.669 72.7548 80.5805 72.6876C80.6161 72.6791 80.6586 72.6705 80.7088 72.662C80.8426 72.6394 81.0177 72.6202 81.2409 72.6049C83.0381 72.4817 87.28 72.653 91.1025 73.3099C93.0142 73.6384 94.8038 74.0855 96.125 74.6698C96.7858 74.962 97.3162 75.2828 97.6854 75.6298C98.053 75.9753 98.2472 76.3332 98.2728 76.7066C98.3299 77.5397 98.2224 78.3758 97.9564 79.1673C97.6903 79.9587 97.271 80.6901 96.7224 81.3195C96.1737 81.9489 95.5064 82.4641 94.7587 82.8357C94.0109 83.2072 93.1973 83.4279 92.3642 83.485ZM80.4664 72.5811C80.4666 72.5811 80.4674 72.5823 80.4686 72.5847C80.4669 72.5823 80.4663 72.5811 80.4664 72.5811ZM80.4367 72.7369C80.4351 72.7382 80.4341 72.7388 80.434 72.7388C80.4339 72.7387 80.4348 72.7381 80.4367 72.7369Z" fill="#C4C4C4" stroke="black" stroke-width="0.5"/>
    <path d="M92.1762 86.8203C91.3104 86.8797 90.4414 86.7679 89.6188 86.4914C88.7962 86.215 88.0361 85.7791 87.382 85.2089C86.7278 84.6387 86.1923 83.9452 85.8062 83.168C85.42 82.3908 85.1907 81.5452 85.1314 80.6794C84.8817 77.0383 77.3776 75.6911 81.0187 75.4414C84.6599 75.1918 98.0675 76.1343 98.3172 79.7755C98.3765 80.6412 98.2648 81.5102 97.9883 82.3328C97.7118 83.1554 97.276 83.9155 96.7057 84.5697C96.1355 85.2239 95.442 85.7593 94.6648 86.1455C93.8877 86.5317 93.042 86.761 92.1762 86.8203Z" fill="black"/>
    <path d="M83.7472 151.512L83.7464 151.511C83.3656 151.287 82.9939 151.048 82.6313 150.794L82.6302 150.793C81.4436 149.97 80.3605 149.008 79.4046 147.926L79.4046 147.926L79.4027 147.924C79.2385 147.742 79.0803 147.558 78.9259 147.37C78.3812 146.704 77.8841 145.999 77.4385 145.263C77.3599 145.129 77.2811 144.994 77.2018 144.857L77.201 144.856C77.2008 144.855 77.2006 144.855 77.2004 144.855C75.0795 141.12 74.3525 136.753 75.1487 132.532C75.9449 128.311 78.213 124.509 81.5494 121.803C84.8857 119.097 89.0739 117.663 93.3686 117.755C97.6633 117.847 101.786 119.46 105.003 122.307L105.004 122.308C105.175 122.457 105.342 122.61 105.507 122.769L105.508 122.769C107.157 124.339 108.495 126.206 109.451 128.273C109.455 128.282 109.459 128.29 109.463 128.298C110.888 131.399 111.412 134.839 110.977 138.224L110.974 138.248L110.974 138.252C110.965 138.319 110.956 138.383 110.946 138.447L110.946 138.447L110.945 138.453C110.648 140.557 110.355 142.052 109.951 143.129C109.55 144.196 109.047 144.831 108.338 145.239C107.616 145.656 106.651 145.854 105.287 145.981C104.513 146.053 103.63 146.101 102.608 146.157C101.822 146.2 100.954 146.247 99.9892 146.313C98.9757 146.383 97.6258 146.871 96.1528 147.51C95.2197 147.915 94.2178 148.389 93.2024 148.87C92.6096 149.15 92.0123 149.433 91.4212 149.706C89.8085 150.449 88.2351 151.119 86.8771 151.491C86.1985 151.676 85.5833 151.784 85.0502 151.793C84.5165 151.801 84.0811 151.71 83.7472 151.512ZM109.519 128.367C109.519 128.367 109.519 128.367 109.518 128.366L109.518 128.366L109.519 128.367L109.519 128.367Z" fill="white" stroke="black" stroke-width="0.5"/>
    <path d="M101.922 148.563C98.0611 148.827 88.6312 155.563 85.5356 153.727C85.1491 153.499 84.7718 153.256 84.4038 152.998C83.2006 152.164 82.1025 151.189 81.1332 150.092C80.966 149.907 80.8052 149.719 80.6487 149.529C80.096 148.853 79.5918 148.138 79.1398 147.391C79.0598 147.255 78.9797 147.117 78.8996 146.979C76.749 143.192 76.0118 138.765 76.819 134.486C77.6263 130.206 79.9256 126.352 83.3079 123.609C86.6902 120.866 90.9361 119.412 95.29 119.505C99.6439 119.599 103.823 121.234 107.085 124.12C107.259 124.271 107.428 124.428 107.596 124.588C109.271 126.182 110.628 128.078 111.598 130.176C111.598 130.178 111.6 130.178 111.6 130.18C113.049 133.328 113.583 136.819 113.141 140.256L113.141 140.26C113.131 140.336 113.121 140.412 113.108 140.487C111.922 148.908 110.746 147.958 101.922 148.563Z" fill="black"/>
    <path d="M122.234 143.9L119.824 142.829C119.665 142.759 119.52 142.654 119.398 142.52C119.275 142.387 119.177 142.228 119.108 142.051C119.04 141.875 119.003 141.685 119 141.492C118.997 141.3 119.027 141.108 119.09 140.929C119.152 140.75 119.245 140.586 119.363 140.448C119.481 140.309 119.622 140.198 119.778 140.122C119.935 140.045 120.102 140.004 120.273 140C120.443 139.997 120.612 140.032 120.77 140.102L123.181 141.173C123.5 141.316 123.756 141.596 123.893 141.951C124.029 142.307 124.036 142.71 123.91 143.071C123.785 143.432 123.538 143.722 123.224 143.877C122.909 144.033 122.553 144.041 122.234 143.9Z" fill="black"/>
    <path d="M125.509 141.047L125.63 141.095L125.739 141.023C125.959 140.878 126.211 140.787 126.473 140.759C126.735 140.732 127.001 140.767 127.246 140.864L171.703 158.344C172.11 158.504 172.437 158.82 172.612 159.222C172.787 159.623 172.796 160.078 172.636 160.486L171.374 163.702C171.214 164.11 170.899 164.437 170.498 164.612C170.097 164.787 169.642 164.796 169.235 164.636L124.778 147.155C124.778 147.155 124.778 147.155 124.778 147.155C124.413 147.011 124.111 146.74 123.927 146.392C123.744 146.043 123.691 145.641 123.778 145.257L123.826 145.047L123.626 144.969L122.146 144.387C121.973 144.319 121.816 144.218 121.682 144.089C121.549 143.96 121.442 143.806 121.368 143.636C121.294 143.466 121.254 143.283 121.25 143.097C121.247 142.911 121.28 142.727 121.348 142.554L121.348 142.554L121.9 141.147L121.9 141.147C121.968 140.974 122.069 140.816 122.197 140.683C122.326 140.549 122.48 140.442 122.65 140.368C122.82 140.294 123.003 140.254 123.188 140.25C123.373 140.247 123.558 140.28 123.73 140.348L123.73 140.348L125.509 141.047Z" fill="white" stroke="black" stroke-width="0.5"/>
    <path d="M165.322 164.99L181.697 171.559L165.322 164.99ZM165.322 164.99L168.654 156.326L185.022 162.892L165.322 164.99ZM186.522 164.371C186.811 165.049 186.826 165.817 186.562 166.505L185.023 162.893C185.693 163.163 186.233 163.694 186.522 164.371ZM186.562 166.506L185.224 169.986C185.224 169.986 185.224 169.986 185.223 169.986C184.958 170.674 184.437 171.224 183.776 171.518C183.116 171.812 182.368 171.827 181.697 171.559L186.562 166.506Z" fill="white" stroke="black" stroke-width="0.5"/>
    <path d="M184.411 169.888L176.082 166.769C175.661 166.611 175.323 166.3 175.142 165.904C174.961 165.509 174.953 165.061 175.118 164.659L175.376 164.032C175.542 163.631 175.868 163.308 176.283 163.136C176.698 162.963 177.167 162.955 177.589 163.112L185.918 166.231C186.339 166.389 186.677 166.7 186.858 167.096C187.039 167.491 187.047 167.939 186.882 168.341L186.624 168.968C186.458 169.369 186.132 169.692 185.717 169.864C185.302 170.037 184.833 170.045 184.411 169.888Z" fill="black"/>
</svg>
