<svg style="width: 100px; height: 40px" width="59" height="20" viewBox="0 0 59 14" fill="none" xmlns="http://www.w3.org/2000/svg">
    <path d="M52.2737 6.95456C51.9743 6.73256 51.6442 6.57469 51.3316 6.37736C51.1291 6.24909 50.9134 6.13562 50.7373 5.97282C50.4379 5.69655 50.4995 5.15388 50.8121 4.91708C51.2612 4.58161 52.0051 4.76908 52.0844 5.45482C52.0844 5.46962 52.0976 5.47949 52.1108 5.47949H52.7888C52.8064 5.47949 52.8196 5.46469 52.8152 5.44495C52.78 4.97135 52.6171 4.57668 52.3177 4.32508C52.0316 4.08335 51.7058 3.95508 51.358 3.95508C49.5663 3.95508 49.4034 6.08135 50.3675 6.75229C50.4775 6.83122 51.424 7.36403 51.7586 7.59589C52.0932 7.82776 52.1988 8.25203 52.0536 8.5875C51.9215 8.89337 51.5781 9.1055 51.2347 9.08083C50.8605 9.05617 50.57 8.82923 50.4687 8.47403C50.4511 8.4099 50.4423 8.28656 50.4423 8.2323C50.4423 8.2175 50.4291 8.2027 50.4159 8.2027H49.6807C49.6675 8.2027 49.6543 8.2175 49.6543 8.2323C49.6543 8.82923 49.7864 9.15977 50.1474 9.4607C50.4863 9.74684 50.8561 9.86524 51.2391 9.86524C52.2429 9.86524 52.7623 9.22884 52.868 8.56777C52.9605 7.9215 52.7888 7.33936 52.2737 6.95456Z" fill="#161616"/>
    <path d="M20.3527 4.06445H20.027H19.6704C19.6572 4.06445 19.6484 4.07432 19.644 4.08419L19.0408 6.31406C19.032 6.34366 18.9968 6.34366 18.988 6.31406L18.3849 4.08419C18.3805 4.06939 18.3717 4.06445 18.3585 4.06445H18.0019H17.6761H17.2359C17.2227 4.06445 17.2095 4.07925 17.2095 4.09405V9.78715C17.2095 9.80195 17.2227 9.81675 17.2359 9.81675H17.9711C17.9843 9.81675 17.9975 9.80195 17.9975 9.78715V5.46059C17.9975 5.42606 18.0415 5.42113 18.0503 5.45073L18.6578 7.6954L18.7019 7.85327C18.7063 7.86807 18.7151 7.873 18.7283 7.873H19.2918C19.305 7.873 19.3138 7.86314 19.3182 7.85327L19.3622 7.6954L19.9697 5.45073C19.9785 5.41619 20.0226 5.42606 20.0226 5.46059V9.78715C20.0226 9.80195 20.0358 9.81675 20.049 9.81675H20.7842C20.7974 9.81675 20.8106 9.80195 20.8106 9.78715V4.09405C20.8106 4.07925 20.7974 4.06445 20.7842 4.06445H20.3527Z" fill="#161616"/>
    <path d="M41.0171 4.06445C41.0038 4.06445 40.995 4.07432 40.9906 4.08419L40.3875 6.31406C40.3787 6.34366 40.3435 6.34366 40.3347 6.31406L39.7316 4.08419C39.7272 4.06939 39.7184 4.06445 39.7052 4.06445H38.587C38.5738 4.06445 38.5605 4.07925 38.5605 4.09405V9.78715C38.5605 9.80195 38.5738 9.81675 38.587 9.81675H39.3222C39.3354 9.81675 39.3486 9.80195 39.3486 9.78715V5.46059C39.3486 5.42606 39.3926 5.42113 39.4014 5.45073L40.0089 7.6954L40.0529 7.85327C40.0573 7.86807 40.0661 7.873 40.0794 7.873H40.6429C40.6561 7.873 40.6649 7.86314 40.6693 7.85327L40.7133 7.6954L41.3208 5.45073C41.3296 5.41619 41.3736 5.42606 41.3736 5.46059V9.78715C41.3736 9.80195 41.3868 9.81675 41.4001 9.81675H42.1352C42.1485 9.81675 42.1617 9.80195 42.1617 9.78715V4.09405C42.1617 4.07925 42.1485 4.06445 42.1352 4.06445H41.0171Z" fill="#161616"/>
    <path d="M31.5345 4.06445H30.1654H29.4302H28.0611C28.0479 4.06445 28.0347 4.07925 28.0347 4.09405V4.80446C28.0347 4.81926 28.0479 4.83406 28.0611 4.83406H29.4038V9.78715C29.4038 9.80195 29.417 9.81675 29.4302 9.81675H30.1654C30.1786 9.81675 30.1918 9.80195 30.1918 9.78715V4.83406H31.5345C31.5477 4.83406 31.5609 4.81926 31.5609 4.80446V4.09405C31.5609 4.07925 31.5521 4.06445 31.5345 4.06445Z" fill="#161616"/>
    <path d="M35.8706 9.81695H36.5397C36.5573 9.81695 36.5705 9.79721 36.5661 9.77748L35.1838 4.06466C35.1794 4.04986 35.1706 4.04492 35.1574 4.04492H34.9021H34.453H34.1977C34.1845 4.04492 34.1757 4.05479 34.1713 4.06466L32.7889 9.77748C32.7845 9.79721 32.7977 9.81695 32.8154 9.81695H33.4845C33.4977 9.81695 33.5065 9.80708 33.5109 9.79721L33.9115 8.13467C33.9159 8.11987 33.9247 8.11494 33.9379 8.11494H35.4171C35.4303 8.11494 35.4391 8.12481 35.4435 8.13467L35.8442 9.79721C35.8486 9.80708 35.8618 9.81695 35.8706 9.81695ZM34.114 7.30094L34.6511 5.07599C34.6599 5.04639 34.6951 5.04639 34.704 5.07599L35.241 7.30094C35.2454 7.32067 35.2322 7.3404 35.2146 7.3404H34.1405C34.1228 7.3404 34.1096 7.32067 34.114 7.30094Z" fill="#161616"/>
    <path d="M47.2812 9.81695H47.9504C47.968 9.81695 47.9812 9.79721 47.9768 9.77748L46.5945 4.06466C46.5901 4.04986 46.5812 4.04492 46.568 4.04492H46.3127H45.8637H45.6083C45.5951 4.04492 45.5863 4.05479 45.5819 4.06466L44.1996 9.77748C44.1952 9.79721 44.2084 9.81695 44.226 9.81695H44.8952C44.9084 9.81695 44.9172 9.80708 44.9216 9.79721L45.3222 8.13467C45.3266 8.11987 45.3354 8.11494 45.3486 8.11494H46.8278C46.841 8.11494 46.8498 8.12481 46.8542 8.13467L47.2548 9.79721C47.2592 9.80708 47.268 9.81695 47.2812 9.81695ZM45.5247 7.30094L46.0618 5.07599C46.0706 5.04639 46.1058 5.04639 46.1146 5.07599L46.6517 7.30094C46.6561 7.32067 46.6429 7.3404 46.6253 7.3404H45.5511C45.5335 7.3404 45.5203 7.32067 45.5247 7.30094Z" fill="#161616"/>
    <path d="M23.7953 8.97212V7.20597C23.7953 7.19117 23.8085 7.17637 23.8218 7.17637H25.7808C25.794 7.17637 25.8072 7.16157 25.8072 7.14677V6.43637C25.8072 6.42157 25.794 6.40677 25.7808 6.40677H23.8218C23.8085 6.40677 23.7953 6.39197 23.7953 6.37717V4.86756C23.7953 4.85276 23.8085 4.83796 23.8218 4.83796H26.0493C26.0625 4.83796 26.0757 4.82316 26.0757 4.80836V4.09796C26.0757 4.08316 26.0625 4.06836 26.0493 4.06836H23.7953H23.0337C23.0205 4.06836 23.0073 4.08316 23.0073 4.09796V4.83796V6.4117V7.18131V9.00665V9.78612C23.0073 9.80092 23.0205 9.81572 23.0337 9.81572H23.7953H26.1418C26.155 9.81572 26.1682 9.80092 26.1682 9.78612V9.03625C26.1682 9.02145 26.155 9.00665 26.1418 9.00665H23.8174C23.8041 9.00171 23.7953 8.99185 23.7953 8.97212Z" fill="#161616"/>
    <path d="M58.992 9.76639L56.4474 6.82117C56.4386 6.81131 56.4386 6.79157 56.4474 6.78171L58.7366 4.11769C58.7542 4.09796 58.741 4.06836 58.719 4.06836H57.7813C57.7725 4.06836 57.7681 4.07329 57.7637 4.07823L55.8223 6.3377C55.8047 6.35744 55.7782 6.34264 55.7782 6.31797V4.09796C55.7782 4.08316 55.765 4.06836 55.7518 4.06836H55.0166C55.0034 4.06836 54.9902 4.08316 54.9902 4.09796V9.79105C54.9902 9.80585 55.0034 9.82065 55.0166 9.82065H55.7518C55.765 9.82065 55.7782 9.80585 55.7782 9.79105V7.28491C55.7782 7.26024 55.8091 7.24544 55.8223 7.26517L58.0234 9.81079C58.0278 9.81572 58.0366 9.82065 58.041 9.82065H58.9787C58.9964 9.81572 59.0096 9.78119 58.992 9.76639Z" fill="#161616"/>
    <path d="M12.1861 1L7.73535 4.70002L8.56299 2.51947L12.1861 1Z" fill="#E17726" stroke="#E17726" stroke-linecap="round" stroke-linejoin="round"/>
    <path d="M1.91992 1L6.33106 4.73455L5.54304 2.51947L1.91992 1Z" fill="#E27625" stroke="#E27625" stroke-linecap="round" stroke-linejoin="round"/>
    <path d="M10.5846 9.57812L9.40039 11.6107L11.9361 12.3951L12.6625 9.62252L10.5846 9.57812Z" fill="#E27625" stroke="#E27625" stroke-linecap="round" stroke-linejoin="round"/>
    <path d="M1.44922 9.62252L2.1712 12.3951L4.70254 11.6107L3.52272 9.57812L1.44922 9.62252Z" fill="#E27625" stroke="#E27625" stroke-linecap="round" stroke-linejoin="round"/>
    <path d="M4.56619 6.14547L3.86182 7.33934L6.37115 7.46761L6.2875 4.43359L4.56619 6.14547Z" fill="#E27625" stroke="#E27625" stroke-linecap="round" stroke-linejoin="round"/>
    <path d="M9.54031 6.14485L7.79258 4.39844L7.73535 7.46699L10.2447 7.33872L9.54031 6.14485Z" fill="#E27625" stroke="#E27625" stroke-linecap="round" stroke-linejoin="round"/>
    <path d="M4.70215 11.611L6.22095 10.7871L4.91346 9.64258L4.70215 11.611Z" fill="#E27625" stroke="#E27625" stroke-linecap="round" stroke-linejoin="round"/>
    <path d="M7.88574 10.7871L9.40015 11.611L9.19324 9.64258L7.88574 10.7871Z" fill="#E27625" stroke="#E27625" stroke-linecap="round" stroke-linejoin="round"/>
    <path d="M9.39917 11.611L7.88477 10.7871L8.00803 11.8922L7.99482 12.3608L9.39917 11.611Z" fill="#D5BFB2" stroke="#D5BFB2" stroke-linecap="round" stroke-linejoin="round"/>
    <path d="M4.70264 11.611L6.11138 12.3608L6.10258 11.8922L6.22144 10.7871L4.70264 11.611Z" fill="#D5BFB2" stroke="#D5BFB2" stroke-linecap="round" stroke-linejoin="round"/>
    <path d="M6.13749 8.91227L4.87842 8.49786L5.76769 8.03906L6.13749 8.91227Z" fill="#233447" stroke="#233447" stroke-linecap="round" stroke-linejoin="round"/>
    <path d="M7.96924 8.91227L8.33903 8.03906L9.23271 8.49786L7.96924 8.91227Z" fill="#233447" stroke="#233447" stroke-linecap="round" stroke-linejoin="round"/>
    <path d="M4.70277 11.1575L4.92289 9.125L3.52295 9.1694L4.70277 11.1575Z" fill="#CC6228" stroke="#CC6228" stroke-linecap="round" stroke-linejoin="round"/>
    <path d="M9.18408 9.125L9.3998 11.1575L10.584 9.1694L9.18408 9.125Z" fill="#CC6228" stroke="#CC6228" stroke-linecap="round" stroke-linejoin="round"/>
    <path d="M10.2461 6.88477L7.73682 7.01303L7.97014 8.45851L8.33994 7.5853L9.23361 8.0441L10.2461 6.88477Z" fill="#CC6228" stroke="#CC6228" stroke-linecap="round" stroke-linejoin="round"/>
    <path d="M4.87876 8.0441L5.76803 7.5853L6.13782 8.45851L6.37115 7.01303L3.86182 6.88477L4.87876 8.0441Z" fill="#CC6228" stroke="#CC6228" stroke-linecap="round" stroke-linejoin="round"/>
    <path d="M3.86182 7.33984L4.91397 9.64372L4.87876 8.49918L3.86182 7.33984Z" fill="#E27525" stroke="#E27525" stroke-linecap="round" stroke-linejoin="round"/>
    <path d="M9.23249 8.49918L9.19287 9.64372L10.245 7.33984L9.23249 8.49918Z" fill="#E27525" stroke="#E27525" stroke-linecap="round" stroke-linejoin="round"/>
    <path d="M6.37004 7.46875L6.13672 8.91422L6.43168 10.6212L6.49771 8.37155L6.37004 7.46875Z" fill="#E27525" stroke="#E27525" stroke-linecap="round" stroke-linejoin="round"/>
    <path d="M7.73557 7.46875L7.6123 8.36662L7.67394 10.6212L7.9689 8.91422L7.73557 7.46875Z" fill="#E27525" stroke="#E27525" stroke-linecap="round" stroke-linejoin="round"/>
    <path d="M7.9683 8.91245L7.67334 10.6194L7.88465 10.7871L9.19214 9.64259L9.23176 8.49805L7.9683 8.91245Z" fill="#F5841F" stroke="#F5841F" stroke-linecap="round" stroke-linejoin="round"/>
    <path d="M4.87842 8.49805L4.91364 9.64259L6.22113 10.7871L6.43244 10.6194L6.13748 8.91245L4.87842 8.49805Z" fill="#F5841F" stroke="#F5841F" stroke-linecap="round" stroke-linejoin="round"/>
    <path d="M7.99558 12.3612L8.00879 11.8925L7.89433 11.784H6.21264L6.10258 11.8925L6.11138 12.3612L4.70264 11.6113L5.1957 12.0652L6.19503 12.8397H7.90753L8.91127 12.0652L9.39993 11.6113L7.99558 12.3612Z" fill="#C0AC9D" stroke="#C0AC9D" stroke-linecap="round" stroke-linejoin="round"/>
    <path d="M7.88499 10.7869L7.67368 10.6191H6.43223L6.22091 10.7869L6.10205 11.8919L6.21211 11.7834H7.8938L8.00826 11.8919L7.88499 10.7869Z" fill="#161616" stroke="#161616" stroke-linecap="round" stroke-linejoin="round"/>
    <path d="M12.3756 4.94175L12.7498 2.89934L12.1863 1L7.88525 4.57668L9.54053 6.14549L11.8782 6.91016L12.3932 6.23429L12.1687 6.05175L12.5253 5.68669L12.2524 5.44989L12.609 5.14402L12.3756 4.94175Z" fill="#763E1A" stroke="#763E1A" stroke-linecap="round" stroke-linejoin="round"/>
    <path d="M1.35645 2.89934L1.73505 4.94175L1.49292 5.14402L1.85391 5.44989L1.58096 5.68669L1.93755 6.05175L1.71303 6.23429L2.22811 6.91016L4.56575 6.14549L6.22102 4.57668L1.91994 1L1.35645 2.89934Z" fill="#763E1A" stroke="#763E1A" stroke-linecap="round" stroke-linejoin="round"/>
    <path d="M11.8783 6.9092L9.54066 6.14453L10.245 7.3384L9.19287 9.64228L10.584 9.62254H12.6619L11.8783 6.9092Z" fill="#F5841F" stroke="#F5841F" stroke-linecap="round" stroke-linejoin="round"/>
    <path d="M4.56607 6.14453L2.22843 6.9092L1.44922 9.62254H3.52272L4.91386 9.64228L3.8617 7.3384L4.56607 6.14453Z" fill="#F5841F" stroke="#F5841F" stroke-linecap="round" stroke-linejoin="round"/>
    <path d="M7.73533 7.46769L7.88501 4.57674L8.56297 2.51953H5.54297L6.22093 4.57674L6.37061 7.46769L6.42784 8.37542L6.43224 10.6201H7.6737L7.6781 8.37542L7.73533 7.46769Z" fill="#F5841F" stroke="#F5841F" stroke-linecap="round" stroke-linejoin="round"/>
</svg>
